<svg width="19" height="18" viewBox="0 0 19 18" fill="none" xmlns="http://www.w3.org/2000/svg">
<g clip-path="url(#clip0_584_242)">
<path fill-rule="evenodd" clip-rule="evenodd" d="M8.16589 12.54C10.9273 12.5335 13.1606 10.2896 13.154 7.52823C13.1475 4.76681 10.9036 2.53354 8.14223 2.54007C5.38082 2.5466 3.14754 4.79047 3.15407 7.55188C3.16061 10.3133 5.40447 12.5466 8.16589 12.54ZM8.16944 14.04C11.7593 14.0315 14.6625 11.1145 14.654 7.52468C14.6455 3.93484 11.7285 1.03158 8.13868 1.04007C4.54884 1.04857 1.64559 3.96559 1.65408 7.55543C1.66257 11.1453 4.57959 14.0485 8.16944 14.04Z" fill="#C5C7CD"/>
<path fill-rule="evenodd" clip-rule="evenodd" d="M12.1331 11.5003C12.4253 11.2068 12.9002 11.2056 13.1938 11.4978L17.2032 15.4884C17.4968 15.7806 17.4979 16.2554 17.2057 16.549C16.9135 16.8426 16.4387 16.8437 16.1451 16.5515L12.1356 12.561C11.842 12.2688 11.8409 11.7939 12.1331 11.5003Z" fill="#C5C7CD"/>
</g>
<defs>
<clipPath id="clip0_584_242">
<rect width="17.0378" height="16.0402" fill="white" transform="translate(0.962097 1.00009) rotate(-0.135531)"/>
</clipPath>
</defs>
</svg>
