<svg width="17" height="17" viewBox="0 0 17 17" fill="none" xmlns="http://www.w3.org/2000/svg">
<g clip-path="url(#clip0_584_265)">
<g opacity="0.4" filter="url(#filter0_d_584_265)">
<path d="M3.06748 7.72101C3.94997 7.71893 4.66577 6.99973 4.66369 6.11723C4.6616 5.23474 3.9424 4.51894 3.05991 4.52102C2.17741 4.52311 1.46161 5.24231 1.4637 6.1248C1.46578 7.0073 2.18498 7.7231 3.06748 7.72101ZM14.2674 7.69452C15.1499 7.69243 15.8657 6.97324 15.8637 6.09074C15.8616 5.20824 15.1424 4.49244 14.2599 4.49453C13.3774 4.49662 12.6616 5.21581 12.6637 6.09831C12.6658 6.98081 13.3849 7.69661 14.2674 7.69452ZM15.0693 8.49263L13.4693 8.49641C13.0293 8.49745 12.6323 8.67589 12.3429 8.96408C13.3517 9.51419 14.0691 10.51 14.2269 11.6946L15.8769 11.6907C16.3194 11.6897 16.6761 11.3313 16.675 10.8888L16.6731 10.0888C16.671 9.20634 15.9518 8.49054 15.0693 8.49263ZM8.66935 8.50777C10.2168 8.50411 11.4664 7.24865 11.4627 5.70115C11.4591 4.15365 10.2036 2.90412 8.65611 2.90778C7.10861 2.91144 5.85908 4.1669 5.86274 5.7144C5.8664 7.26189 7.12186 8.51143 8.66935 8.50777ZM10.5912 9.30322L10.3837 9.30371C9.86433 9.55494 9.28719 9.70631 8.67219 9.70776C8.05719 9.70922 7.48184 9.56058 6.95875 9.31181L6.75125 9.31231C5.16125 9.31607 3.87431 10.6091 3.87807 12.1991L3.87977 12.9191C3.88134 13.5816 4.42011 14.1178 5.08261 14.1163L12.2826 14.0992C12.9451 14.0977 13.4813 13.5589 13.4797 12.8964L13.478 12.1764C13.4743 10.5864 12.1812 9.29946 10.5912 9.30322ZM4.99796 8.98145C4.70728 8.69464 4.30936 8.51808 3.86937 8.51912L2.26937 8.5229C1.38687 8.52499 0.671072 9.24419 0.673159 10.1267L0.675052 10.9267C0.676098 11.3692 1.03444 11.7258 1.47694 11.7248L3.12444 11.7209C3.27913 10.5355 3.99177 9.53633 4.99796 8.98145Z" fill="#9FA2B4"/>
<path d="M4.16369 6.11842C4.16512 6.72477 3.67265 7.21958 3.06629 7.22102C2.45994 7.22245 1.96513 6.72998 1.96369 6.12362C1.96226 5.51726 2.45473 5.02246 3.06109 5.02102C3.66744 5.01959 4.16225 5.51206 4.16369 6.11842ZM15.3637 6.09192C15.3651 6.69828 14.8726 7.19309 14.2663 7.19452C13.6599 7.19596 13.1651 6.70348 13.1637 6.09713C13.1622 5.49077 13.6547 4.99596 14.2611 4.99453C14.8674 4.99309 15.3622 5.48557 15.3637 6.09192ZM14.641 11.1936C14.4299 10.326 13.9491 9.56952 13.2911 9.01135C13.3495 9.00166 13.4094 8.99655 13.4705 8.99641L15.0705 8.99263C15.6769 8.99119 16.1717 9.48366 16.1731 10.09L16.175 10.89C16.1754 11.0564 16.0421 11.1903 15.8757 11.1907L14.641 11.1936ZM10.9627 5.70233C10.9657 6.97369 9.93952 8.00476 8.66817 8.00777C7.39682 8.01077 6.36574 6.98457 6.36274 5.71321C6.35973 4.44186 7.38593 3.41079 8.65729 3.40778C9.92864 3.40477 10.9597 4.43098 10.9627 5.70233ZM8.67337 10.2078C9.32896 10.2062 9.94304 10.0543 10.4956 9.80345L10.5924 9.80322C11.9063 9.80011 12.9749 10.8637 12.978 12.1776L12.9797 12.8976C12.9807 13.2839 12.6678 13.5983 12.2814 13.5992L5.08143 13.6163C4.69507 13.6172 4.38069 13.3043 4.37977 12.9179L4.37807 12.1979C4.37496 10.8841 5.43858 9.81541 6.75243 9.8123L6.84966 9.81207C7.40451 10.06 8.0171 10.2093 8.67337 10.2078ZM3.87055 9.01912C3.93168 9.01897 3.99162 9.02379 4.05 9.03321C3.39448 9.59458 2.91696 10.3534 2.70876 11.2219L1.47576 11.2248C1.3094 11.2252 1.17544 11.0919 1.17505 10.9255L1.17316 10.1255C1.17172 9.51915 1.6642 9.02434 2.27055 9.0229L3.87055 9.01912Z" stroke="#9FA2B4"/>
</g>
</g>
<defs>
<filter id="filter0_d_584_265" x="-3.32684" y="2.90778" width="24.0018" height="19.2085" filterUnits="userSpaceOnUse" color-interpolation-filters="sRGB">
<feFlood flood-opacity="0" result="BackgroundImageFix"/>
<feColorMatrix in="SourceAlpha" type="matrix" values="0 0 0 0 0 0 0 0 0 0 0 0 0 0 0 0 0 0 127 0" result="hardAlpha"/>
<feOffset dy="4"/>
<feGaussianBlur stdDeviation="2"/>
<feComposite in2="hardAlpha" operator="out"/>
<feColorMatrix type="matrix" values="0 0 0 0 0 0 0 0 0 0 0 0 0 0 0 0 0 0 0.25 0"/>
<feBlend mode="normal" in2="BackgroundImageFix" result="effect1_dropShadow_584_265"/>
<feBlend mode="normal" in="SourceGraphic" in2="effect1_dropShadow_584_265" result="shape"/>
</filter>
<clipPath id="clip0_584_265">
<rect width="16" height="16" fill="white" transform="translate(0.650452 0.526711) rotate(-0.135531)"/>
</clipPath>
</defs>
</svg>
