<svg width="17" height="17" viewBox="0 0 17 17" fill="none" xmlns="http://www.w3.org/2000/svg">
<g clip-path="url(#clip0_584_273)">
<path opacity="0.4" d="M15.9419 11.7409L15.9171 1.24092C15.9161 0.825292 15.5809 0.491709 15.1653 0.492692L4.91534 0.516938C3.25909 0.520856 1.91852 1.86778 1.92244 3.52403L1.9461 13.524C1.95001 15.1802 3.29694 16.5208 4.95318 16.5169L15.2032 16.4926C15.6188 16.4917 15.9524 16.1565 15.9514 15.7409L15.9502 15.2409C15.9496 15.0065 15.8398 14.7943 15.6707 14.6572C15.5383 14.1762 15.5351 12.8044 15.6652 12.3228C15.8336 12.188 15.9425 11.9753 15.9419 11.7409ZM5.92524 4.70206C5.92499 4.59894 6.00917 4.51436 6.11229 4.51412L12.7373 4.49845C12.8404 4.4982 12.925 4.58238 12.9252 4.6855L12.9267 5.3105C12.9269 5.41363 12.8428 5.4982 12.7396 5.49844L6.11466 5.51412C6.01154 5.51436 5.92696 5.43018 5.92672 5.32706L5.92524 4.70206ZM5.92997 6.70206C5.92973 6.59893 6.0139 6.51436 6.11703 6.51411L12.742 6.49844C12.8451 6.4982 12.9297 6.58237 12.9299 6.6855L12.9314 7.3105C12.9317 7.41362 12.8475 7.49819 12.7444 7.49844L6.11939 7.51411C6.01627 7.51435 5.93169 7.43018 5.93145 7.32705L5.92997 6.70206ZM13.8672 14.4958L4.94845 14.5169C4.39533 14.5182 3.9474 14.0724 3.94609 13.5193C3.94479 12.9693 4.39372 12.5182 4.94372 12.5169L13.8624 12.4958C13.8043 13.0303 13.8065 13.9616 13.8672 14.4958Z" fill="#9FA2B4"/>
</g>
<defs>
<clipPath id="clip0_584_273">
<rect width="16" height="16" fill="white" transform="translate(0.915344 0.5264) rotate(-0.135531)"/>
</clipPath>
</defs>
</svg>
