<svg width="17" height="17" viewBox="0 0 17 17" fill="none" xmlns="http://www.w3.org/2000/svg">
<g clip-path="url(#clip0_584_281)">
<path opacity="0.4" d="M5.10904 11.8477C4.83684 11.5768 4.97858 11.653 4.32317 11.4792C4.02579 11.4002 3.76418 11.2477 3.5275 11.0649L2.11791 14.5445C1.98152 14.8813 2.23863 15.2464 2.60173 15.2317L4.24813 15.165L5.38346 16.3586C5.63408 16.6218 6.07264 16.5385 6.20903 16.2017L7.82615 12.2097C7.48785 12.3992 7.11218 12.5108 6.72343 12.5117C6.11405 12.5131 5.54099 12.2773 5.10904 11.8477V11.8477ZM14.0429 14.5162L12.6168 11.0434C12.381 11.2277 12.1201 11.3811 11.8231 11.4615C11.1651 11.6393 11.3093 11.5621 11.039 11.8337C10.6091 12.2653 10.0369 12.5038 9.42748 12.5053C9.03873 12.5062 8.66253 12.3962 8.32334 12.2085L9.95933 16.1928C10.0973 16.529 10.5366 16.6102 10.7856 16.3458L11.9156 15.1469L13.5623 15.2058C13.9255 15.2187 14.1809 14.8522 14.0429 14.5162V14.5162ZM10.2911 11.1282C10.7675 10.6412 10.8222 10.6829 11.5018 10.496C11.9356 10.3765 12.2741 10.0304 12.3893 9.58827C12.621 8.70022 12.5606 8.80755 13.1969 8.15666C13.5139 7.83248 13.6369 7.36062 13.5196 6.91902C13.2841 6.0327 13.284 6.15645 13.5157 5.26809C13.6309 4.82594 13.5057 4.35467 13.1871 4.03199C12.5478 3.38412 12.6087 3.49086 12.3728 2.60422C12.2555 2.16262 11.9153 1.81812 11.481 1.70071C10.6092 1.46495 10.7143 1.52689 10.0744 0.878718C9.75578 0.556034 9.29204 0.430568 8.85826 0.550032C7.98789 0.789591 8.10945 0.789616 7.23639 0.553868C6.80205 0.436458 6.33891 0.563803 6.02187 0.888304C5.38559 1.53919 5.49045 1.47706 4.61945 1.71694C4.18567 1.8364 3.84711 2.18251 3.73191 2.62466C3.50057 3.5124 3.56063 3.40538 2.92435 4.05627C2.60731 4.38045 2.48405 4.85231 2.60166 5.29391C2.83719 6.1796 2.83721 6.05585 2.60556 6.94453C2.49036 7.38668 2.61553 7.85794 2.93411 8.18094C3.57346 8.82881 3.51258 8.72176 3.74843 9.60871C3.86572 10.0503 4.20591 10.3948 4.64025 10.5122C5.34008 10.7012 5.39219 10.6711 5.85361 11.1387C6.26805 11.5587 6.91229 11.6325 7.40842 11.3169C7.60681 11.1903 7.83714 11.1228 8.07249 11.1222C8.30784 11.1217 8.53848 11.1881 8.73747 11.3138C9.23478 11.627 9.87866 11.5501 10.2911 11.1282ZM5.11212 6.01422C5.1082 4.35704 6.42501 3.01048 8.05313 3.00663C9.68126 3.00278 11.0044 4.34309 11.0083 6.00027C11.0123 7.65746 9.69545 9.00401 8.06733 9.00786C6.43921 9.01171 5.11604 7.6714 5.11212 6.01422V6.01422Z" fill="#9FA2B4"/>
</g>
<defs>
<clipPath id="clip0_584_281">
<rect width="16" height="16" fill="white" transform="translate(0.0472412 0.527443) rotate(-0.135531)"/>
</clipPath>
</defs>
</svg>
