<svg width="12" height="17" viewBox="0 0 12 17" fill="none" xmlns="http://www.w3.org/2000/svg">
<path opacity="0.4" d="M3.0534 14.7122C3.05417 14.9088 3.11275 15.1012 3.2222 15.2647L3.75816 16.0662C3.84972 16.2032 3.97373 16.3155 4.11916 16.393C4.26459 16.4705 4.42692 16.5109 4.59172 16.5105L6.52015 16.5059C6.68494 16.5055 6.84709 16.4644 6.99215 16.3862C7.13721 16.308 7.26068 16.1952 7.35159 16.0577L7.88375 15.2536C7.99238 15.0896 8.05019 14.8972 8.04995 14.7004L8.04836 13.502L3.049 13.5138L3.0534 14.7122ZM0.0309544 6.02093C0.0342343 7.40749 0.551288 8.67127 1.40076 9.63583C1.9184 10.2237 2.72881 11.4524 3.03908 12.4898C3.04035 12.4979 3.0413 12.506 3.04257 12.5141L8.05006 12.5023C8.05129 12.4942 8.05221 12.4864 8.05344 12.4779C8.35879 11.4391 9.16338 10.2065 9.67824 9.61625C10.5231 8.64768 11.0342 7.38147 11.0309 5.99491C11.0237 2.95148 8.54634 0.491398 5.50074 0.507977C2.31296 0.525205 0.0240776 3.11375 0.0309544 6.02093ZM5.52503 3.50793C4.14659 3.51119 3.02769 4.6354 3.03095 6.01383C3.0316 6.29008 2.80838 6.51436 2.53213 6.51502C2.25588 6.51567 2.0316 6.29245 2.03095 6.0162C2.02638 4.08621 3.59267 2.5125 5.52266 2.50793C5.79891 2.50728 6.02319 2.7305 6.02384 3.00675C6.02449 3.283 5.80127 3.50727 5.52503 3.50793Z" fill="#9FA2B4"/>
</svg>
