<svg width="17" height="17" viewBox="0 0 17 17" fill="none" xmlns="http://www.w3.org/2000/svg">
<g clip-path="url(#clip0_584_253)">
<path d="M16.344 9.43033L9.36485 9.44684L14.0238 14.0838C14.2018 14.261 14.4942 14.2747 14.6765 14.1022C15.8122 13.0272 16.5917 11.5797 16.8175 9.95421C16.8563 9.67588 16.6248 9.42966 16.344 9.43033V9.43033ZM15.8739 7.52556C15.6232 4.01262 12.8089 1.21162 9.29482 0.977583C9.02654 0.959689 8.80119 1.1864 8.80183 1.45522L8.8174 8.03637L15.3988 8.0208C15.6677 8.02016 15.893 7.79375 15.8739 7.52556ZM7.40898 9.45146L7.39247 2.47238C7.3918 2.1915 7.14449 1.9612 6.86665 2.00127C3.36283 2.50485 0.690961 5.57323 0.824347 9.24263C0.961497 13.0111 4.2138 16.094 7.98426 16.0378C9.46657 16.0157 10.8351 15.5348 11.9594 14.7334C12.1914 14.5681 12.2059 14.226 12.0039 14.025L7.40898 9.45146Z" fill="white"/>
</g>
<defs>
<clipPath id="clip0_584_253">
<rect width="16" height="16" fill="white" transform="translate(0.799622 0.525909) rotate(-0.135531)"/>
</clipPath>
</defs>
</svg>
