<svg width="17" height="15" viewBox="0 0 17 15" fill="none" xmlns="http://www.w3.org/2000/svg">
<g opacity="0.4" filter="url(#filter0_d_584_266)">
<path d="M3.06748 5.72101C3.94997 5.71893 4.66577 4.99973 4.66369 4.11723C4.6616 3.23474 3.9424 2.51894 3.05991 2.52102C2.17741 2.52311 1.46161 3.24231 1.4637 4.1248C1.46578 5.0073 2.18498 5.7231 3.06748 5.72101ZM14.2674 5.69452C15.1499 5.69243 15.8657 4.97324 15.8637 4.09074C15.8616 3.20824 15.1424 2.49244 14.2599 2.49453C13.3774 2.49662 12.6616 3.21581 12.6637 4.09831C12.6658 4.98081 13.3849 5.69661 14.2674 5.69452ZM15.0693 6.49263L13.4693 6.49641C13.0293 6.49745 12.6323 6.67589 12.3429 6.96408C13.3517 7.51419 14.0691 8.51 14.2269 9.69463L15.8769 9.69073C16.3194 9.68968 16.6761 9.33133 16.675 8.88884L16.6731 8.08884C16.671 7.20634 15.9518 6.49054 15.0693 6.49263ZM8.66935 6.50777C10.2168 6.5041 11.4664 5.24865 11.4627 3.70115C11.4591 2.15365 10.2036 0.90412 8.65611 0.907781C7.10861 0.911441 5.85908 2.1669 5.86274 3.7144C5.8664 5.26189 7.12186 6.51143 8.66935 6.50777ZM10.5912 7.30322L10.3837 7.30371C9.86433 7.55494 9.28719 7.70631 8.67219 7.70776C8.05719 7.70922 7.48184 7.56058 6.95875 7.31181L6.75125 7.31231C5.16125 7.31607 3.87431 8.60911 3.87807 10.1991L3.87977 10.9191C3.88134 11.5816 4.42011 12.1178 5.08261 12.1163L12.2826 12.0992C12.9451 12.0977 13.4813 11.5589 13.4797 10.8964L13.478 10.1764C13.4743 8.58641 12.1812 7.29946 10.5912 7.30322ZM4.99796 6.98145C4.70728 6.69464 4.30936 6.51808 3.86937 6.51912L2.26937 6.5229C1.38687 6.52499 0.671072 7.24419 0.673159 8.12668L0.675052 8.92668C0.676098 9.36918 1.03444 9.72584 1.47694 9.72479L3.12444 9.72089C3.27913 8.53552 3.99177 7.53633 4.99796 6.98145Z" fill="#9FA2B4"/>
<path d="M4.16369 4.11842C4.16512 4.72477 3.67265 5.21958 3.06629 5.22102C2.45994 5.22245 1.96513 4.72998 1.96369 4.12362C1.96226 3.51726 2.45473 3.02246 3.06109 3.02102C3.66744 3.01959 4.16225 3.51206 4.16369 4.11842ZM15.3637 4.09192C15.3651 4.69828 14.8726 5.19309 14.2663 5.19452C13.6599 5.19596 13.1651 4.70348 13.1637 4.09713C13.1622 3.49077 13.6547 2.99596 14.2611 2.99453C14.8674 2.99309 15.3622 3.48557 15.3637 4.09192ZM14.641 9.19365C14.4299 8.32599 13.9491 7.56952 13.2911 7.01135C13.3495 7.00166 13.4094 6.99655 13.4705 6.99641L15.0705 6.99263C15.6769 6.99119 16.1717 7.48366 16.1731 8.09002L16.175 8.89002C16.1754 9.05638 16.0421 9.19033 15.8757 9.19073L14.641 9.19365ZM10.9627 3.70233C10.9657 4.97369 9.93952 6.00476 8.66817 6.00777C7.39682 6.01077 6.36574 4.98457 6.36274 3.71321C6.35973 2.44186 7.38593 1.41079 8.65729 1.40778C9.92864 1.40477 10.9597 2.43098 10.9627 3.70233ZM8.67337 8.20776C9.32896 8.20621 9.94304 8.05432 10.4956 7.80345L10.5924 7.80322C11.9063 7.80011 12.9749 8.86373 12.978 10.1776L12.9797 10.8976C12.9807 11.2839 12.6678 11.5983 12.2814 11.5992L5.08143 11.6163C4.69507 11.6172 4.38069 11.3043 4.37977 10.9179L4.37807 10.1979C4.37496 8.88407 5.43858 7.81541 6.75243 7.8123L6.84966 7.81207C7.40451 8.06002 8.0171 8.20931 8.67337 8.20776ZM3.87055 7.01912C3.93168 7.01897 3.99162 7.02379 4.05 7.03321C3.39448 7.59458 2.91696 8.35338 2.70876 9.22187L1.47576 9.22479C1.3094 9.22518 1.17544 9.09186 1.17505 8.9255L1.17316 8.1255C1.17172 7.51915 1.6642 7.02434 2.27055 7.0229L3.87055 7.01912Z" stroke="black"/>
</g>
<defs>
<filter id="filter0_d_584_266" x="-3.32684" y="0.907776" width="24.0018" height="19.2085" filterUnits="userSpaceOnUse" color-interpolation-filters="sRGB">
<feFlood flood-opacity="0" result="BackgroundImageFix"/>
<feColorMatrix in="SourceAlpha" type="matrix" values="0 0 0 0 0 0 0 0 0 0 0 0 0 0 0 0 0 0 127 0" result="hardAlpha"/>
<feOffset dy="4"/>
<feGaussianBlur stdDeviation="2"/>
<feComposite in2="hardAlpha" operator="out"/>
<feColorMatrix type="matrix" values="0 0 0 0 0 0 0 0 0 0 0 0 0 0 0 0 0 0 0.25 0"/>
<feBlend mode="normal" in2="BackgroundImageFix" result="effect1_dropShadow_584_266"/>
<feBlend mode="normal" in="SourceGraphic" in2="effect1_dropShadow_584_266" result="shape"/>
</filter>
</defs>
</svg>
