<svg width="16" height="17" viewBox="0 0 16 17" fill="none" xmlns="http://www.w3.org/2000/svg">
<path opacity="0.4" d="M15.378 10.3557L14.045 9.59007C14.1776 8.86475 14.1759 8.12101 14.0398 7.39633L15.3692 6.62443C15.5221 6.53657 15.5905 6.35515 15.5401 6.18652C15.1906 5.07485 14.5975 4.07 13.8237 3.23433C13.7046 3.10648 13.5108 3.07569 13.361 3.16354L12.0316 3.93544C11.4711 3.45552 10.8265 3.08516 10.129 2.84306L10.1254 1.30869C10.125 1.13369 10.0027 0.980857 9.83077 0.943764C8.68329 0.690228 7.50832 0.705507 6.41828 0.951836C6.24649 0.989743 6.12498 1.14316 6.1254 1.31815L6.12903 2.85565C5.43587 3.10417 4.793 3.47756 4.23163 3.95702L2.90169 3.19141C2.74836 3.10427 2.5578 3.13285 2.43937 3.26438C1.66947 4.10058 1.08122 5.10822 0.736989 6.22466C0.684264 6.39354 0.756567 6.57462 0.909898 6.66176L2.24296 7.42736C2.1103 8.15267 2.11206 8.89642 2.24815 9.6211L0.918725 10.393C0.765807 10.4809 0.697486 10.6623 0.747885 10.8309C1.09739 11.9426 1.69039 12.9474 2.46425 13.7831C2.5833 13.9109 2.77712 13.9417 2.92692 13.8539L4.25634 13.082C4.81685 13.5619 5.46148 13.9323 6.15893 14.1744L6.16257 15.7119C6.16298 15.8869 6.28522 16.0397 6.45718 16.0768C7.60466 16.3303 8.77963 16.315 9.86967 16.0687C10.0415 16.0308 10.163 15.8774 10.1626 15.7024L10.1589 14.1649C10.8521 13.9164 11.4949 13.543 12.0563 13.0635L13.3894 13.8291C13.5427 13.9163 13.7333 13.8877 13.8517 13.7562C14.6216 12.92 15.2099 11.9123 15.5541 10.7959C15.6006 10.6239 15.5314 10.4428 15.378 10.3557ZM8.14832 11.0071C6.7702 11.0104 5.64567 9.89119 5.64241 8.51307C5.63915 7.13495 6.75837 6.01042 8.13649 6.00716C9.51461 6.0039 10.6391 7.12312 10.6424 8.50124C10.6457 9.87936 9.52644 11.0039 8.14832 11.0071Z" fill="#9FA2B4"/>
</svg>
