<svg width="103" height="43" viewBox="0 0 103 43" fill="none" xmlns="http://www.w3.org/2000/svg">
<path opacity="0.7" d="M0.526756 14.4293L0.495071 1.03434L5.35906 1.02283C6.89172 1.01921 8.18435 1.28215 9.23694 1.81166C10.3022 2.32848 11.1083 3.08657 11.6553 4.08595C12.2023 5.07266 12.4775 6.27534 12.4809 7.69401C12.4842 9.1 12.2147 10.304 11.6724 11.3059C11.1301 12.3079 10.3276 13.0761 9.26485 13.6106C8.21477 14.1451 6.92341 14.4142 5.39074 14.4178L0.526756 14.4293ZM2.97294 12.3905L5.23393 12.3852C6.85526 12.3813 8.05768 11.9921 8.84118 11.2176C9.62469 10.4431 10.0146 9.27051 10.0109 7.69985C10.0071 6.11652 9.61168 4.94579 8.82455 4.18764C8.0374 3.41684 6.83315 3.03335 5.21182 3.03719L2.95083 3.04254L2.97294 12.3905ZM18.9148 14.5758C18.0788 14.5778 17.3437 14.3832 16.7094 13.992C16.0751 13.5882 15.5798 13.013 15.2233 12.2665C14.8669 11.52 14.6875 10.6275 14.685 9.5888C14.6825 8.55013 14.8578 7.66305 15.2107 6.92755C15.5636 6.17938 16.0563 5.60821 16.6887 5.21405C17.321 4.80722 18.0552 4.60281 18.8912 4.60083C19.7019 4.59892 20.4117 4.7999 21.0206 5.2038C21.6422 5.595 22.0552 6.12602 22.2594 6.79687L22.0504 6.79737L22.2547 4.78288L24.5346 4.77749C24.4976 5.17024 24.4605 5.56933 24.4235 5.97475C24.3991 6.38014 24.3874 6.77917 24.3883 7.17184L24.4053 14.3728L22.0494 14.3784L22.0257 12.4024L22.2537 12.4019C22.0526 13.061 21.6421 13.5877 21.0224 13.9818C20.4027 14.376 19.7001 14.5739 18.9148 14.5758ZM19.5755 12.7502C20.3228 12.7485 20.9239 12.4874 21.3786 11.967C21.8334 11.4339 22.0595 10.6354 22.057 9.57136C22.0545 8.50736 21.8246 7.71624 21.3674 7.19798C20.9101 6.67973 20.3079 6.42149 19.5605 6.42326C18.8132 6.42502 18.2121 6.68611 17.7574 7.20652C17.3026 7.72693 17.0765 8.51914 17.079 9.58313C17.0815 10.6471 17.3051 11.4446 17.7497 11.9756C18.2069 12.4938 18.8155 12.752 19.5755 12.7502ZM30.812 14.5477C29.9887 14.5496 29.2284 14.4564 28.5313 14.2681C27.8469 14.067 27.2699 13.7897 26.8004 13.4362L27.4616 11.8386C27.9437 12.1668 28.4763 12.4188 29.0594 12.5948C29.6425 12.7708 30.2317 12.858 30.827 12.8566C31.4603 12.8551 31.9287 12.7464 32.2322 12.5303C32.5484 12.3142 32.706 12.0225 32.7052 11.6552C32.7045 11.3638 32.6026 11.1361 32.3995 10.9719C32.2091 10.795 31.8985 10.6628 31.4676 10.5751L29.5668 10.2186C28.7557 10.0432 28.1343 9.74065 27.7026 9.311C27.2836 8.88133 27.0733 8.31816 27.0716 7.62149C27.0702 7.02616 27.2273 6.50012 27.5429 6.04337C27.8711 5.5866 28.3326 5.23084 28.9274 4.9761C29.5347 4.70866 30.2437 4.57398 31.0544 4.57206C31.7637 4.57038 32.429 4.66381 33.0501 4.85234C33.6839 5.04084 34.2165 5.32459 34.6481 5.70357L33.9677 7.24418C33.5743 6.92844 33.1241 6.68251 32.617 6.50637C32.1099 6.33024 31.6157 6.24274 31.1344 6.24388C30.4757 6.24544 29.9946 6.36691 29.6912 6.60829C29.3878 6.83701 29.2365 7.13504 29.2373 7.50237C29.238 7.78103 29.3272 8.01516 29.505 8.20474C29.6954 8.38162 29.9871 8.51393 30.3799 8.60167L32.2808 8.95817C33.1298 9.12083 33.7702 9.41065 34.2018 9.82763C34.6461 10.2319 34.8691 10.7887 34.8708 11.4981C34.8723 12.1314 34.7026 12.6765 34.3617 13.1333C34.0207 13.5901 33.5466 13.9395 32.9391 14.1816C32.3317 14.4237 31.6227 14.5457 30.812 14.5477ZM37.3101 14.3423L37.277 0.358331L39.652 0.352713L39.6669 6.6607L39.4009 6.66133C39.6906 5.97664 40.1391 5.45624 40.7462 5.10014C41.3534 4.73137 42.0496 4.54605 42.8349 4.5442C43.9749 4.5415 44.8244 4.86249 45.3832 5.50717C45.942 6.13918 46.223 7.10752 46.2261 8.41219L46.2401 14.3212L43.8651 14.3268L43.8514 8.5318C43.8496 7.78447 43.7027 7.24648 43.4105 6.91784C43.1311 6.5765 42.681 6.40657 42.0603 6.40803C41.3383 6.40974 40.7562 6.63912 40.314 7.09617C39.8843 7.54052 39.6704 8.13636 39.6722 8.88369L39.6851 14.3367L37.3101 14.3423ZM54.6497 14.4913C53.8391 14.4932 53.1293 14.2985 52.5203 13.9073C51.9114 13.5034 51.5048 12.9597 51.3005 12.2762L51.5095 12.2757L51.5143 14.3087L49.1583 14.3143L49.1252 0.330304L51.5002 0.324686L51.5152 6.67067L51.2872 6.67121C51.501 6.01203 51.9114 5.49173 52.5185 5.11029C53.1256 4.71619 53.8281 4.51819 54.6261 4.5163C55.4748 4.5143 56.2163 4.71521 56.8506 5.11904C57.4849 5.52288 57.9802 6.09804 58.3367 6.84453C58.6931 7.57836 58.8725 8.4646 58.8749 9.50327C58.8774 10.5419 58.7022 11.4353 58.3493 12.1835C57.9964 12.919 57.4974 13.4902 56.8523 13.8971C56.2199 14.2912 55.4857 14.4893 54.6497 14.4913ZM53.9804 12.6689C54.7278 12.6671 55.3288 12.406 55.7836 11.8856C56.251 11.3651 56.4835 10.5729 56.481 9.50893C56.4784 8.44493 56.2422 7.65382 55.7723 7.1356C55.3151 6.60468 54.7128 6.3401 53.9655 6.34187C53.2181 6.34364 52.6171 6.60473 52.1623 7.12514C51.7075 7.64555 51.4814 8.43775 51.4839 9.50175C51.4864 10.5657 51.7163 11.3632 52.1736 11.8941C52.6308 12.4124 53.2331 12.6706 53.9804 12.6689ZM65.6729 14.4652C64.6849 14.4675 63.8295 14.2669 63.1065 13.8633C62.3835 13.4596 61.8185 12.8846 61.4114 12.1383C61.017 11.3919 60.8185 10.5057 60.8161 9.47968C60.8137 8.45368 61.0079 7.57288 61.3989 6.83729C61.8024 6.089 62.3647 5.51134 63.0858 5.1043C63.8068 4.69726 64.6613 4.49257 65.6493 4.49023C66.6373 4.48789 67.4928 4.68854 68.2158 5.09216C68.9514 5.49575 69.5164 6.07075 69.9109 6.81716C70.3179 7.55086 70.5227 8.43071 70.5251 9.45671C70.5275 10.4827 70.327 11.3699 69.9234 12.1181C69.5325 12.8664 68.9702 13.4441 68.2365 13.8511C67.5154 14.2582 66.6609 14.4629 65.6729 14.4652ZM65.6686 12.6412C66.4159 12.6394 67.0107 12.3784 67.4528 11.858C67.8948 11.3249 68.1146 10.5264 68.1121 9.46242C68.1096 8.39842 67.886 7.60728 67.4415 7.089C66.9969 6.57071 66.401 6.31246 65.6536 6.31422C64.9063 6.31599 64.3116 6.57707 63.8695 7.09745C63.4274 7.61783 63.2076 8.41002 63.2101 9.47401C63.2126 10.538 63.4362 11.3355 63.8808 11.8664C64.3253 12.3847 64.9213 12.643 65.6686 12.6412ZM76.69 14.4391C75.854 14.4411 75.1189 14.2465 74.4847 13.8554C73.8504 13.4515 73.355 12.8764 72.9986 12.1299C72.6421 11.3834 72.4627 10.4908 72.4602 9.45213C72.4578 8.41347 72.633 7.52639 72.9859 6.79088C73.3388 6.04271 73.8315 5.47154 74.4639 5.07738C75.0963 4.67055 75.8304 4.46615 76.6664 4.46417C77.4771 4.46225 78.1869 4.66324 78.7959 5.06713C79.4175 5.45833 79.8304 5.98936 80.0347 6.66021L79.8257 6.6607L80.0299 4.64621L82.3099 4.64082C82.2728 5.03358 82.2358 5.43266 82.1987 5.83809C82.1743 6.24348 82.1626 6.64251 82.1635 7.03517L82.1806 14.2362L79.8246 14.2417L79.8009 12.2658L80.0289 12.2652C79.8278 12.9244 79.4174 13.451 78.7976 13.8452C78.1779 14.2393 77.4754 14.4373 76.69 14.4391ZM77.3507 12.6136C78.0981 12.6118 78.6991 12.3507 79.1539 11.8303C79.6086 11.2972 79.8347 10.4987 79.8322 9.43469C79.8297 8.3707 79.5998 7.57957 79.1426 7.06132C78.6854 6.54307 78.0831 6.28482 77.3358 6.28659C76.5884 6.28836 75.9874 6.54945 75.5326 7.06986C75.0778 7.59027 74.8517 8.38247 74.8542 9.44647C74.8567 10.5105 75.0803 11.3079 75.5249 11.8389C75.9821 12.3571 76.5907 12.6154 77.3507 12.6136ZM85.1478 14.2291L85.1309 7.08515C85.1299 6.67982 85.1163 6.26819 85.09 5.85025C85.0763 5.43228 85.0437 5.02702 84.9921 4.63448L87.2911 4.62904L87.5633 7.2504L87.1833 7.2513C87.3085 6.61767 87.5162 6.09151 87.8066 5.67282C88.1096 5.2541 88.4762 4.9429 88.9064 4.73922C89.3365 4.53553 89.805 4.43309 90.3116 4.43189C90.5396 4.43135 90.7233 4.44358 90.8627 4.46859C91.0021 4.48093 91.1415 4.51226 91.2809 4.5626L91.2669 6.65264C91.026 6.55187 90.8168 6.48904 90.6394 6.46412C90.4747 6.43918 90.2657 6.42701 90.0124 6.42761C89.4677 6.42889 89.0056 6.54399 88.6262 6.77289C88.2594 7.00175 87.9815 7.31908 87.7924 7.72486C87.616 8.13061 87.5285 8.59315 87.5297 9.11249L87.5418 14.2235L85.1478 14.2291ZM96.6018 14.392C95.7658 14.394 95.0243 14.1994 94.3774 13.8083C93.7431 13.4045 93.2477 12.8293 92.8913 12.0828C92.5348 11.3363 92.3554 10.4437 92.3529 9.40508C92.3505 8.36641 92.5257 7.47933 92.8787 6.74383C93.2316 5.99566 93.7242 5.42449 94.3566 5.03033C95.0016 4.62346 95.7422 4.41905 96.5782 4.41707C97.3762 4.41518 98.0796 4.60985 98.6885 5.00108C99.3101 5.37961 99.723 5.89797 99.9272 6.55615L99.6802 6.55674L99.6652 0.210754L102.04 0.205136L102.073 14.1891L99.7363 14.1946L99.7315 12.1616L99.9595 12.1611C99.7584 12.8456 99.3481 13.3912 98.7284 13.798C98.1213 14.1921 97.4124 14.3901 96.6018 14.392ZM97.2624 12.5665C98.0098 12.5647 98.6108 12.3036 99.0656 11.7832C99.5203 11.2501 99.7464 10.4516 99.7439 9.38759C99.7414 8.3236 99.5115 7.53247 99.0543 7.01422C98.5971 6.49597 97.9948 6.23772 97.2475 6.23949C96.5001 6.24126 95.8928 6.50236 95.4253 7.0228C94.9705 7.54321 94.7444 8.33542 94.7469 9.39941C94.7495 10.4634 94.9793 11.2609 95.4366 11.7918C95.9065 12.31 96.5151 12.5682 97.2624 12.5665ZM0.583527 38.4292L0.551842 25.0343L6.42283 25.0204C7.87949 25.0169 9.00122 25.3246 9.78802 25.9434C10.5748 26.5496 10.9695 27.3973 10.972 28.4866C10.974 29.2973 10.7349 29.9819 10.2549 30.5403C9.77488 31.0988 9.11077 31.474 8.26255 31.6661L8.26188 31.3811C9.23754 31.5181 9.99204 31.871 10.5254 32.4397C11.0714 32.9957 11.3455 33.7361 11.3476 34.6608C11.3505 35.8514 10.941 36.7771 10.1192 37.4377C9.29741 38.0856 8.15184 38.4113 6.68251 38.4148L0.583527 38.4292ZM2.93512 36.5617L6.39311 36.5535C7.21644 36.5515 7.85574 36.398 8.31102 36.0929C8.76627 35.7752 8.99306 35.2617 8.99138 34.5523C8.98967 33.8303 8.76046 33.3179 8.30374 33.015C7.84699 32.6994 7.20695 32.5426 6.38362 32.5445L2.92563 32.5527L2.93512 36.5617ZM2.92127 30.7097L6.01827 30.7024C6.89226 30.7003 7.53789 30.5404 7.95514 30.2228C8.38502 29.8924 8.59922 29.4106 8.59772 28.7773C8.59622 28.1439 8.37976 27.6694 7.94835 27.3538C7.52957 27.0254 6.88318 26.8623 6.00919 26.8644L2.9122 26.8717L2.92127 30.7097ZM17.6171 38.5789C16.7811 38.5809 16.046 38.3863 15.4117 37.9952C14.7774 37.5913 14.2821 37.0162 13.9256 36.2697C13.5692 35.5232 13.3897 34.6306 13.3873 33.5919C13.3848 32.5533 13.5601 31.6662 13.913 30.9307C14.2659 30.1825 14.7585 29.6113 15.3909 29.2172C16.0233 28.8104 16.7575 28.6059 17.5935 28.604C18.4042 28.6021 19.114 28.803 19.7229 29.2069C20.3445 29.5981 20.7574 30.1292 20.9617 30.8L20.7527 30.8005L20.9569 28.786L23.2369 28.7806C23.1999 29.1734 23.1628 29.5725 23.1258 29.9779C23.1014 30.3833 23.0897 30.7823 23.0906 31.175L23.1076 38.376L20.7516 38.3815L20.728 36.4056L20.956 36.405C20.7549 37.0642 20.3444 37.5908 19.7247 37.985C19.105 38.3791 18.4024 38.5771 17.6171 38.5789ZM18.2778 36.7534C19.0251 36.7516 19.6262 36.4905 20.0809 35.9701C20.5357 35.437 20.7618 34.6385 20.7593 33.5745C20.7567 32.5105 20.5269 31.7194 20.0696 31.2011C19.6124 30.6829 19.0101 30.4246 18.2628 30.4264C17.5155 30.4282 16.9144 30.6892 16.4597 31.2097C16.0049 31.7301 15.7788 32.5223 15.7813 33.5863C15.7838 34.6503 16.0073 35.4477 16.4519 35.9787C16.9092 36.4969 17.5178 36.7552 18.2778 36.7534ZM30.5499 42.6144C29.6632 42.6165 28.8587 42.5234 28.1362 42.3351C27.4265 42.1467 26.7924 41.8569 26.2342 41.4656L26.7431 39.7544C27.111 39.9942 27.4915 40.1896 27.8845 40.3407C28.2775 40.4917 28.6831 40.6048 29.1013 40.6798C29.5195 40.7548 29.9439 40.7918 30.3746 40.7908C31.2613 40.7887 31.9194 40.5655 32.349 40.1211C32.7913 39.6894 33.0115 39.0682 33.0096 38.2575L33.0042 35.9585L33.1942 35.9581C32.9931 36.6172 32.5826 37.1439 31.9629 37.538C31.3558 37.9321 30.6533 38.1301 29.8553 38.132C28.994 38.134 28.2399 37.9458 27.593 37.5673C26.9587 37.1762 26.4634 36.62 26.107 35.8989C25.7506 35.1777 25.5713 34.3294 25.569 33.3541C25.5667 32.3788 25.742 31.536 26.095 30.8259C26.448 30.103 26.9407 29.5509 27.5731 29.1694C28.2182 28.7752 28.9714 28.5771 29.8327 28.575C30.6434 28.5731 31.3468 28.7678 31.9431 29.159C32.552 29.5376 32.9585 30.056 33.1628 30.7141L32.9915 30.6006L33.1771 28.7571L35.4761 28.7517C35.4264 29.1445 35.3893 29.5435 35.365 29.9489C35.3406 30.3543 35.3289 30.7534 35.3298 31.146L35.3459 37.967C35.3495 39.4743 34.9405 40.6216 34.1191 41.4089C33.3103 42.2088 32.1206 42.6106 30.5499 42.6144ZM30.497 36.3065C31.257 36.3047 31.858 36.0499 32.3002 35.5422C32.7549 35.0218 32.9812 34.2866 32.979 33.3366C32.9767 32.3866 32.747 31.6588 32.2898 31.1532C31.8453 30.6476 31.243 30.3957 30.483 30.3975C29.7103 30.3993 29.0966 30.6541 28.6418 31.1618C28.187 31.6696 27.9607 32.3985 27.963 33.3485C27.9652 34.2985 28.195 35.0326 28.6522 35.5508C29.1094 36.0564 29.7243 36.3083 30.497 36.3065ZM38.1334 42.6534L37.5779 40.7737C38.1729 40.6457 38.6729 40.4988 39.0779 40.3332C39.4828 40.1676 39.818 39.9514 40.0833 39.6848C40.3487 39.4182 40.5696 39.0757 40.7459 38.6572L41.2183 37.5351L41.1635 38.4662L36.9605 28.7482L39.4874 28.7422L42.5071 36.2211L41.9562 36.2224L44.9594 28.7292L47.3534 28.7236L43.0074 38.8609C42.7177 39.5456 42.4023 40.11 42.0614 40.5541C41.7205 41.0109 41.354 41.3728 40.962 41.6397C40.57 41.9193 40.1398 42.1357 39.6715 42.2888C39.2032 42.4419 38.6905 42.5634 38.1334 42.6534Z" fill="white"/>
</svg>
