<svg width="13" height="17" viewBox="0 0 13 17" fill="none" xmlns="http://www.w3.org/2000/svg">
<path opacity="0.4" d="M3.31778 11.8462C3.04558 11.5753 3.18732 11.6515 2.53191 11.4778C2.23453 11.3988 1.97292 11.2463 1.73624 11.0634L0.326651 14.543C0.19026 14.8799 0.447374 15.2449 0.810465 15.2303L2.45687 15.1636L3.5922 16.3572C3.84282 16.6203 4.28138 16.5371 4.41777 16.2002L6.03489 12.2083C5.69659 12.3978 5.32092 12.5093 4.93217 12.5102C4.32279 12.5117 3.74974 12.2758 3.31778 11.8462ZM12.2516 14.5148L10.8256 11.0419C10.5898 11.2262 10.3289 11.3797 10.0319 11.46C9.37387 11.6379 9.51806 11.5606 9.24776 11.8322C8.81785 12.2639 8.2456 12.5024 7.63622 12.5038C7.24747 12.5048 6.87127 12.3947 6.53208 12.2071L8.16807 16.1913C8.30605 16.5276 8.74531 16.6087 8.99437 16.3444L10.1244 15.1455L11.7711 15.2044C12.1342 15.2173 12.3896 14.8507 12.2516 14.5148ZM8.49984 11.1268C8.97619 10.6397 9.03098 10.6815 9.71054 10.4946C10.1443 10.3751 10.4829 10.029 10.5981 9.58682C10.8297 8.69877 10.7694 8.8061 11.4056 8.15522C11.7227 7.83103 11.8456 7.35918 11.7283 6.91758C11.4928 6.03126 11.4928 6.15501 11.7244 5.26665C11.8396 4.8245 11.7145 4.35323 11.3959 4.03055C10.7565 3.38268 10.8174 3.48941 10.5816 2.60278C10.4643 2.16118 10.1241 1.81667 9.68973 1.69926C8.81792 1.46351 8.92307 1.52545 8.2831 0.877276C7.96452 0.554592 7.50078 0.429126 7.067 0.54859C6.19663 0.788149 6.31819 0.788174 5.44513 0.552426C5.01079 0.435016 4.54765 0.562362 4.23061 0.886862C3.59433 1.53774 3.69919 1.47562 2.82819 1.71549C2.39441 1.83496 2.05585 2.18107 1.94065 2.62322C1.70931 3.51096 1.76937 3.40394 1.13309 4.05482C0.816047 4.37901 0.692788 4.85087 0.810395 5.29246C1.04593 6.17816 1.04595 6.05441 0.8143 6.94309C0.699095 7.38523 0.824273 7.8565 1.14285 8.1795C1.7822 8.82736 1.72132 8.72032 1.95717 9.60726C2.07446 10.0489 2.41465 10.3934 2.84899 10.5108C3.54882 10.6998 3.60094 10.6696 4.06236 11.1373C4.47679 11.5572 5.12103 11.631 5.61716 11.3155C5.81555 11.1889 6.04588 11.1213 6.28123 11.1208C6.51658 11.1202 6.74723 11.1867 6.94621 11.3123C7.44352 11.6255 8.0874 11.5487 8.49984 11.1268ZM3.32086 6.01278C3.31694 4.3556 4.63375 3.00904 6.26187 3.00519C7.89 3.00134 9.21317 4.34165 9.21709 5.99883C9.22101 7.65601 7.90419 9.00257 6.27607 9.00642C4.64795 9.01027 3.32478 7.66996 3.32086 6.01278Z" fill="#9FA2B4"/>
</svg>
