<svg width="17" height="17" viewBox="0 0 17 17" fill="none" xmlns="http://www.w3.org/2000/svg">
<path opacity="0.4" d="M15.7974 9.43161L8.81828 9.44812L13.4772 14.085C13.6553 14.2623 13.9477 14.276 14.1299 14.1035C15.2656 13.0285 16.0451 11.581 16.271 9.95549C16.3097 9.67716 16.0783 9.43094 15.7974 9.43161V9.43161ZM15.3273 7.52684C15.0766 4.0139 12.2623 1.21291 8.74825 0.978865C8.47997 0.96097 8.25462 1.18768 8.25526 1.4565L8.27083 8.03765L14.8523 8.02208C15.1211 8.02144 15.3464 7.79503 15.3273 7.52684ZM6.86241 9.45274L6.8459 2.47366C6.84523 2.19278 6.59792 1.96248 6.32008 2.00255C2.81626 2.50613 0.144391 5.57451 0.277777 9.24391C0.414927 13.0124 3.66723 16.0953 7.43769 16.039C8.92 16.017 10.2886 15.5361 11.4129 14.7346C11.6448 14.5694 11.6593 14.2273 11.4574 14.0263L6.86241 9.45274Z" fill="white"/>
</svg>
