<svg width="29" height="28" viewBox="0 0 29 28" fill="none" xmlns="http://www.w3.org/2000/svg">
<path opacity="0.16" fill-rule="evenodd" clip-rule="evenodd" d="M28.182 14.0317C28.1997 21.5214 21.845 27.4306 14.2137 27.4487C6.58233 27.4667 0.199764 21.5876 0.182047 14.0979C0.16433 6.60817 6.51902 0.698955 14.1503 0.680903C21.7817 0.662852 28.1643 6.54194 28.182 14.0317ZM14.2089 25.4487C20.8363 25.433 26.1968 20.3235 26.182 14.0364C26.1671 7.74925 20.7825 2.66522 14.1551 2.6809C7.52768 2.69657 2.16717 7.80602 2.18204 14.0932C2.19691 20.3803 7.58154 25.4643 14.2089 25.4487Z" fill="#3751FF"/>
<g filter="url(#filter0_d_1463_3)">
<path d="M21.182 14.0482C21.1907 17.7157 18.0637 20.6962 14.1977 20.7054C10.3317 20.7145 7.1907 17.7489 7.18202 14.0813C7.17335 10.4138 10.3003 7.43334 14.1663 7.42419C18.0323 7.41505 21.1733 10.3807 21.182 14.0482Z" fill="white"/>
</g>
<g filter="url(#filter1_d_1463_3)">
<path fill-rule="evenodd" clip-rule="evenodd" d="M14.1882 16.7054C16.0464 16.701 17.185 15.32 17.182 14.0577C17.179 12.7954 16.0339 11.4198 14.1758 11.4242C12.3176 11.4286 11.179 12.8096 11.182 14.0719C11.185 15.3342 12.3301 16.7098 14.1882 16.7054ZM14.1977 20.7054C18.0637 20.6962 21.1907 17.7157 21.182 14.0482C21.1733 10.3807 18.0323 7.41505 14.1663 7.42419C10.3003 7.43334 7.17335 10.4138 7.18202 14.0813C7.1907 17.7489 10.3317 20.7145 14.1977 20.7054Z" fill="#FC3C8D"/>
</g>
<defs>
<filter id="filter0_d_1463_3" x="5.182" y="6.42416" width="18" height="17.2812" filterUnits="userSpaceOnUse" color-interpolation-filters="sRGB">
<feFlood flood-opacity="0" result="BackgroundImageFix"/>
<feColorMatrix in="SourceAlpha" type="matrix" values="0 0 0 0 0 0 0 0 0 0 0 0 0 0 0 0 0 0 127 0" result="hardAlpha"/>
<feOffset dy="1"/>
<feGaussianBlur stdDeviation="1"/>
<feColorMatrix type="matrix" values="0 0 0 0 0.215686 0 0 0 0 0.317647 0 0 0 0 1 0 0 0 0.2 0"/>
<feBlend mode="normal" in2="BackgroundImageFix" result="effect1_dropShadow_1463_3"/>
<feBlend mode="normal" in="SourceGraphic" in2="effect1_dropShadow_1463_3" result="shape"/>
</filter>
<filter id="filter1_d_1463_3" x="5.182" y="6.42416" width="18" height="17.2812" filterUnits="userSpaceOnUse" color-interpolation-filters="sRGB">
<feFlood flood-opacity="0" result="BackgroundImageFix"/>
<feColorMatrix in="SourceAlpha" type="matrix" values="0 0 0 0 0 0 0 0 0 0 0 0 0 0 0 0 0 0 127 0" result="hardAlpha"/>
<feOffset dy="1"/>
<feGaussianBlur stdDeviation="1"/>
<feColorMatrix type="matrix" values="0 0 0 0 0.215686 0 0 0 0 0.317647 0 0 0 0 1 0 0 0 0.2 0"/>
<feBlend mode="normal" in2="BackgroundImageFix" result="effect1_dropShadow_1463_3"/>
<feBlend mode="normal" in="SourceGraphic" in2="effect1_dropShadow_1463_3" result="shape"/>
</filter>
</defs>
</svg>
