<svg width="40" height="47" viewBox="0 0 40 47" fill="none" xmlns="http://www.w3.org/2000/svg">
<path d="M39.0039 21.035C38.9409 16.6582 36.7386 13.4576 32.7435 11.9526C30.5721 11.1321 29.6238 10.0328 28.9425 7.86276C27.3805 2.88714 22.2193 -0.104263 17.1679 0.590131C12.4407 1.23321 8.73561 4.75108 7.77177 9.56418C7.54073 10.7316 7.16557 11.5118 5.94953 12.1108C2.12892 13.9923 0.0109181 17.062 0.0740336 21.483C0.139868 26.1631 0.233076 30.8473 0.088266 35.5216C-0.0763119 40.7435 4.00085 44.917 8.53781 45.793C12.1897 46.4963 15.8933 45.8999 18.2717 46.048C22.6949 46.0376 25.8124 46.1208 28.9274 46.0018C34.2074 45.7997 38.9466 41.3442 39.0152 36.4995C39.0915 31.341 39.0793 26.1848 39.0039 21.035ZM11.0094 9.67027C11.5238 7.98933 12.572 6.52181 13.9952 5.48998C15.4184 4.45814 17.1391 3.9182 18.8967 3.95192C22.3343 4.01751 25.4049 6.51045 26.3291 9.86994C26.5649 10.7288 26.2598 10.8516 25.5605 10.8512C23.2436 10.844 20.9266 10.8622 18.6224 10.8676C16.4065 10.8728 14.1991 10.8507 11.9728 10.8981C11.0187 10.913 10.7001 10.6778 11.0094 9.67027ZM35.4134 35.5855C35.3192 40.2891 31.5374 42.5581 28.2474 42.608C25.324 42.6507 22.3941 42.6218 19.4663 42.6288L19.4662 42.6056C16.5862 42.6124 13.7076 42.6192 10.8304 42.626C7.24971 42.6345 3.63067 39.8016 3.77401 35.3949C3.93103 30.5374 3.78051 25.6722 3.82376 20.8086C3.8576 17.3057 6.33646 14.5195 9.83661 14.2901C16.2893 13.8683 22.7532 13.6845 29.2145 14.2232C32.737 14.516 35.2227 17.3094 35.3175 20.8605C35.4428 25.7721 35.5218 30.6733 35.4134 35.5855Z" fill="white"/>
<path d="M30.1655 28.1665C29.9852 31.1811 29.0248 33.9026 26.8647 36.0836C25.8056 37.1684 24.538 38.0279 23.1382 38.6104C21.7384 39.1928 20.2353 39.4862 18.7192 39.4729C12.8405 39.4868 7.54271 33.9555 7.75197 28.0363C7.78539 27.0252 8.19036 26.3755 9.18217 26.2678C10.334 26.1472 10.8162 26.9485 10.8943 27.9215C11.0785 30.1137 11.7698 32.0646 13.3428 33.6469C15.6272 35.9395 18.3354 36.6135 21.3914 35.5973C24.4978 34.5621 26.2492 32.3168 26.8293 29.1265C26.9041 28.7051 26.9326 28.2837 26.999 27.8623C27.1589 26.872 27.6268 26.1063 28.7434 26.23C29.8305 26.3496 30.2263 27.1617 30.1655 28.1665Z" fill="white"/>
<path d="M33.2474 28.3193C33.1226 28.9873 32.9304 29.6744 32.0245 29.5565C31.1964 29.4489 31.3907 28.7871 31.3894 28.2373C31.385 26.3417 30.7041 25.2417 29.2751 24.828C27.846 24.4143 26.6491 25.068 25.6991 26.8311C25.3489 27.4849 24.8947 27.8146 24.2388 27.4897C23.6252 27.1857 23.706 26.6126 23.9131 26.016C24.2417 25.0533 24.8658 24.2189 25.6965 23.6319C26.5272 23.0448 27.5221 22.735 28.5393 22.7466C31.4754 22.7355 33.7883 25.4682 33.2474 28.3193Z" fill="white"/>
</svg>
