<svg width="154" height="49" viewBox="0 0 154 49" fill="none" xmlns="http://www.w3.org/2000/svg">
<path opacity="0.7" d="M44.5268 19.4293L44.4951 6.03434L49.3591 6.02283C50.8917 6.01921 52.1843 6.28215 53.2369 6.81166C54.3022 7.32848 55.1083 8.08657 55.6553 9.08595C56.2023 10.0727 56.4775 11.2753 56.4809 12.694C56.4842 14.1 56.2147 15.304 55.6724 16.3059C55.1301 17.3079 54.3276 18.0761 53.2648 18.6106C52.2148 19.1451 50.9234 19.4142 49.3907 19.4178L44.5268 19.4293ZM46.9729 17.3905L49.2339 17.3852C50.8553 17.3813 52.0577 16.9921 52.8412 16.2176C53.6247 15.4431 54.0146 14.2705 54.0109 12.6998C54.0071 11.1165 53.6117 9.94579 52.8246 9.18764C52.0374 8.41684 50.8332 8.03335 49.2118 8.03719L46.9508 8.04254L46.9729 17.3905ZM62.9148 19.5758C62.0788 19.5778 61.3437 19.3832 60.7094 18.992C60.0751 18.5882 59.5798 18.013 59.2233 17.2665C58.8669 16.52 58.6875 15.6275 58.685 14.5888C58.6825 13.5501 58.8578 12.6631 59.2107 11.9275C59.5636 11.1794 60.0563 10.6082 60.6887 10.214C61.321 9.80722 62.0552 9.60281 62.8912 9.60083C63.7019 9.59892 64.4117 9.7999 65.0206 10.2038C65.6422 10.595 66.0552 11.126 66.2594 11.7969L66.0504 11.7974L66.2547 9.78288L68.5346 9.77749C68.4976 10.1702 68.4605 10.5693 68.4235 10.9748C68.3991 11.3801 68.3874 11.7792 68.3883 12.1718L68.4053 19.3728L66.0494 19.3784L66.0257 17.4024L66.2537 17.4019C66.0526 18.061 65.6421 18.5877 65.0224 18.9818C64.4027 19.376 63.7001 19.5739 62.9148 19.5758ZM63.5755 17.7502C64.3228 17.7485 64.9239 17.4874 65.3786 16.967C65.8334 16.4339 66.0595 15.6354 66.057 14.5714C66.0545 13.5074 65.8246 12.7162 65.3674 12.198C64.9101 11.6797 64.3079 11.4215 63.5605 11.4233C62.8132 11.425 62.2121 11.6861 61.7574 12.2065C61.3026 12.7269 61.0765 13.5191 61.079 14.5831C61.0815 15.6471 61.3051 16.4446 61.7497 16.9756C62.2069 17.4938 62.8155 17.752 63.5755 17.7502ZM74.812 19.5477C73.9887 19.5496 73.2284 19.4564 72.5313 19.2681C71.8469 19.067 71.2699 18.7897 70.8004 18.4362L71.4616 16.8386C71.9437 17.1668 72.4763 17.4188 73.0594 17.5948C73.6425 17.7708 74.2317 17.858 74.827 17.8566C75.4603 17.8551 75.9287 17.7464 76.2322 17.5303C76.5484 17.3142 76.706 17.0225 76.7052 16.6552C76.7045 16.3638 76.6026 16.1361 76.3995 15.9719C76.2091 15.795 75.8985 15.6628 75.4676 15.5751L73.5668 15.2186C72.7557 15.0432 72.1343 14.7407 71.7026 14.311C71.2836 13.8813 71.0733 13.3182 71.0716 12.6215C71.0702 12.0262 71.2273 11.5001 71.5429 11.0434C71.8711 10.5866 72.3326 10.2308 72.9274 9.9761C73.5347 9.70866 74.2437 9.57398 75.0544 9.57206C75.7637 9.57038 76.429 9.66381 77.0501 9.85234C77.6839 10.0408 78.2165 10.3246 78.6481 10.7036L77.9677 12.2442C77.5743 11.9284 77.1241 11.6825 76.617 11.5064C76.1099 11.3302 75.6157 11.2427 75.1344 11.2439C74.4757 11.2454 73.9946 11.3669 73.6912 11.6083C73.3878 11.837 73.2365 12.135 73.2373 12.5024C73.238 12.781 73.3272 13.0152 73.505 13.2047C73.6954 13.3816 73.9871 13.5139 74.3799 13.6017L76.2808 13.9582C77.1298 14.1208 77.7702 14.4107 78.2018 14.8276C78.6461 15.2319 78.8691 15.7887 78.8708 16.4981C78.8723 17.1314 78.7026 17.6765 78.3617 18.1333C78.0207 18.5901 77.5466 18.9395 76.9391 19.1816C76.3317 19.4237 75.6227 19.5457 74.812 19.5477ZM81.3101 19.3423L81.277 5.35833L83.652 5.35271L83.6669 11.6607L83.4009 11.6613C83.6906 10.9766 84.1391 10.4562 84.7462 10.1001C85.3534 9.73137 86.0496 9.54605 86.8349 9.5442C87.9749 9.5415 88.8244 9.86249 89.3832 10.5072C89.942 11.1392 90.223 12.1075 90.2261 13.4122L90.2401 19.3212L87.8651 19.3268L87.8514 13.5318C87.8496 12.7845 87.7027 12.2465 87.4105 11.9178C87.1311 11.5765 86.681 11.4066 86.0603 11.408C85.3383 11.4097 84.7562 11.6391 84.314 12.0962C83.8843 12.5405 83.6704 13.1364 83.6722 13.8837L83.6851 19.3367L81.3101 19.3423ZM98.6497 19.4913C97.8391 19.4932 97.1293 19.2985 96.5203 18.9073C95.9114 18.5034 95.5048 17.9597 95.3005 17.2762L95.5095 17.2757L95.5143 19.3087L93.1583 19.3143L93.1252 5.3303L95.5002 5.32469L95.5152 11.6707L95.2872 11.6712C95.501 11.012 95.9114 10.4917 96.5185 10.1103C97.1256 9.71619 97.8281 9.51819 98.6261 9.5163C99.4748 9.5143 100.216 9.71521 100.851 10.119C101.485 10.5229 101.98 11.098 102.337 11.8445C102.693 12.5784 102.872 13.4646 102.875 14.5033C102.877 15.5419 102.702 16.4353 102.349 17.1835C101.996 17.919 101.497 18.4902 100.852 18.8971C100.22 19.2912 99.4857 19.4893 98.6497 19.4913ZM97.9804 17.6689C98.7278 17.6671 99.3288 17.406 99.7836 16.8856C100.251 16.3651 100.483 15.5729 100.481 14.5089C100.478 13.4449 100.242 12.6538 99.7723 12.1356C99.3151 11.6047 98.7128 11.3401 97.9655 11.3419C97.2181 11.3436 96.6171 11.6047 96.1623 12.1251C95.7075 12.6456 95.4814 13.4378 95.4839 14.5018C95.4864 15.5657 95.7163 16.3632 96.1736 16.8941C96.6308 17.4124 97.2331 17.6706 97.9804 17.6689ZM109.673 19.4652C108.685 19.4675 107.829 19.2669 107.106 18.8633C106.384 18.4596 105.819 17.8846 105.411 17.1383C105.017 16.3919 104.819 15.5057 104.816 14.4797C104.814 13.4537 105.008 12.5729 105.399 11.8373C105.802 11.089 106.365 10.5113 107.086 10.1043C107.807 9.69726 108.661 9.49257 109.649 9.49023C110.637 9.48789 111.493 9.68854 112.216 10.0922C112.951 10.4958 113.516 11.0708 113.911 11.8172C114.318 12.5509 114.523 13.4307 114.525 14.4567C114.528 15.4827 114.327 16.3699 113.923 17.1181C113.532 17.8664 112.97 18.4441 112.236 18.8511C111.515 19.2582 110.661 19.4629 109.673 19.4652ZM109.669 17.6412C110.416 17.6394 111.011 17.3784 111.453 16.858C111.895 16.3249 112.115 15.5264 112.112 14.4624C112.11 13.3984 111.886 12.6073 111.441 12.089C110.997 11.5707 110.401 11.3125 109.654 11.3142C108.906 11.316 108.312 11.5771 107.869 12.0974C107.427 12.6178 107.208 13.41 107.21 14.474C107.213 15.538 107.436 16.3355 107.881 16.8664C108.325 17.3847 108.921 17.643 109.669 17.6412ZM120.69 19.4391C119.854 19.4411 119.119 19.2465 118.485 18.8554C117.85 18.4515 117.355 17.8764 116.999 17.1299C116.642 16.3834 116.463 15.4908 116.46 14.4521C116.458 13.4135 116.633 12.5264 116.986 11.7909C117.339 11.0427 117.831 10.4715 118.464 10.0774C119.096 9.67055 119.83 9.46615 120.666 9.46417C121.477 9.46225 122.187 9.66324 122.796 10.0671C123.417 10.4583 123.83 10.9894 124.035 11.6602L123.826 11.6607L124.03 9.64621L126.31 9.64082C126.273 10.0336 126.236 10.4327 126.199 10.8381C126.174 11.2435 126.163 11.6425 126.164 12.0352L126.181 19.2362L123.825 19.2417L123.801 17.2658L124.029 17.2652C123.828 17.9244 123.417 18.451 122.798 18.8452C122.178 19.2393 121.475 19.4373 120.69 19.4391ZM121.351 17.6136C122.098 17.6118 122.699 17.3507 123.154 16.8303C123.609 16.2972 123.835 15.4987 123.832 14.4347C123.83 13.3707 123.6 12.5796 123.143 12.0613C122.685 11.5431 122.083 11.2848 121.336 11.2866C120.588 11.2884 119.987 11.5494 119.533 12.0699C119.078 12.5903 118.852 13.3825 118.854 14.4465C118.857 15.5105 119.08 16.3079 119.525 16.8389C119.982 17.3571 120.591 17.6154 121.351 17.6136ZM129.148 19.2291L129.131 12.0852C129.13 11.6798 129.116 11.2682 129.09 10.8502C129.076 10.4323 129.044 10.027 128.992 9.63448L131.291 9.62904L131.563 12.2504L131.183 12.2513C131.308 11.6177 131.516 11.0915 131.807 10.6728C132.11 10.2541 132.476 9.9429 132.906 9.73922C133.337 9.53553 133.805 9.43309 134.312 9.43189C134.54 9.43135 134.723 9.44358 134.863 9.46859C135.002 9.48093 135.141 9.51226 135.281 9.5626L135.267 11.6526C135.026 11.5519 134.817 11.489 134.639 11.4641C134.475 11.4392 134.266 11.427 134.012 11.4276C133.468 11.4289 133.006 11.544 132.626 11.7729C132.259 12.0018 131.981 12.3191 131.792 12.7249C131.616 13.1306 131.528 13.5932 131.53 14.1125L131.542 19.2235L129.148 19.2291ZM140.602 19.392C139.766 19.394 139.024 19.1994 138.377 18.8083C137.743 18.4045 137.248 17.8293 136.891 17.0828C136.535 16.3363 136.355 15.4437 136.353 14.4051C136.35 13.3664 136.526 12.4793 136.879 11.7438C137.232 10.9957 137.724 10.4245 138.357 10.0303C139.002 9.62346 139.742 9.41905 140.578 9.41707C141.376 9.41518 142.08 9.60985 142.689 10.0011C143.31 10.3796 143.723 10.898 143.927 11.5562L143.68 11.5567L143.665 5.21075L146.04 5.20514L146.073 19.1891L143.736 19.1946L143.731 17.1616L143.959 17.1611C143.758 17.8456 143.348 18.3912 142.728 18.798C142.121 19.1921 141.412 19.3901 140.602 19.392ZM141.262 17.5665C142.01 17.5647 142.611 17.3036 143.066 16.7832C143.52 16.2501 143.746 15.4516 143.744 14.3876C143.741 13.3236 143.512 12.5325 143.054 12.0142C142.597 11.496 141.995 11.2377 141.247 11.2395C140.5 11.2413 139.893 11.5024 139.425 12.0228C138.971 12.5432 138.744 13.3354 138.747 14.3994C138.749 15.4634 138.979 16.2609 139.437 16.7918C139.906 17.31 140.515 17.5682 141.262 17.5665ZM44.5835 43.4292L44.5518 30.0343L50.4228 30.0204C51.8795 30.0169 53.0012 30.3246 53.788 30.9434C54.5748 31.5496 54.9695 32.3973 54.972 33.4866C54.974 34.2973 54.7349 34.9819 54.2549 35.5403C53.7749 36.0988 53.1108 36.474 52.2626 36.6661L52.2619 36.3811C53.2375 36.5181 53.992 36.871 54.5254 37.4397C55.0714 37.9957 55.3455 38.7361 55.3476 39.6608C55.3505 40.8514 54.941 41.7771 54.1192 42.4377C53.2974 43.0856 52.1518 43.4113 50.6825 43.4148L44.5835 43.4292ZM46.9351 41.5617L50.3931 41.5535C51.2164 41.5515 51.8557 41.398 52.311 41.0929C52.7663 40.7752 52.9931 40.2617 52.9914 39.5523C52.9897 38.8303 52.7605 38.3179 52.3037 38.015C51.847 37.6994 51.207 37.5426 50.3836 37.5445L46.9256 37.5527L46.9351 41.5617ZM46.9213 35.7097L50.0183 35.7024C50.8923 35.7003 51.5379 35.5404 51.9551 35.2228C52.385 34.8924 52.5992 34.4106 52.5977 33.7773C52.5962 33.1439 52.3798 32.6694 51.9483 32.3538C51.5296 32.0254 50.8832 31.8623 50.0092 31.8644L46.9122 31.8717L46.9213 35.7097ZM61.6171 43.5789C60.7811 43.5809 60.046 43.3863 59.4117 42.9952C58.7774 42.5913 58.2821 42.0162 57.9256 41.2697C57.5692 40.5232 57.3897 39.6306 57.3873 38.5919C57.3848 37.5533 57.5601 36.6662 57.913 35.9307C58.2659 35.1825 58.7585 34.6113 59.3909 34.2172C60.0233 33.8104 60.7575 33.6059 61.5935 33.604C62.4042 33.6021 63.114 33.803 63.7229 34.2069C64.3445 34.5981 64.7574 35.1292 64.9617 35.8L64.7527 35.8005L64.9569 33.786L67.2369 33.7806C67.1999 34.1734 67.1628 34.5725 67.1258 34.9779C67.1014 35.3833 67.0897 35.7823 67.0906 36.175L67.1076 43.376L64.7516 43.3815L64.728 41.4056L64.956 41.405C64.7549 42.0642 64.3444 42.5908 63.7247 42.985C63.105 43.3791 62.4024 43.5771 61.6171 43.5789ZM62.2778 41.7534C63.0251 41.7516 63.6262 41.4905 64.0809 40.9701C64.5357 40.437 64.7618 39.6385 64.7593 38.5745C64.7567 37.5105 64.5269 36.7194 64.0696 36.2011C63.6124 35.6829 63.0101 35.4246 62.2628 35.4264C61.5155 35.4282 60.9144 35.6892 60.4597 36.2097C60.0049 36.7301 59.7788 37.5223 59.7813 38.5863C59.7838 39.6503 60.0073 40.4477 60.4519 40.9787C60.9092 41.4969 61.5178 41.7552 62.2778 41.7534ZM74.5499 47.6144C73.6632 47.6165 72.8587 47.5234 72.1362 47.3351C71.4265 47.1467 70.7924 46.8569 70.2342 46.4656L70.7431 44.7544C71.111 44.9942 71.4915 45.1896 71.8845 45.3407C72.2775 45.4917 72.6831 45.6048 73.1013 45.6798C73.5195 45.7548 73.9439 45.7918 74.3746 45.7908C75.2613 45.7887 75.9194 45.5655 76.349 45.1211C76.7913 44.6894 77.0115 44.0682 77.0096 43.2575L77.0042 40.9585L77.1942 40.9581C76.9931 41.6172 76.5826 42.1439 75.9629 42.538C75.3558 42.9321 74.6533 43.1301 73.8553 43.132C72.994 43.134 72.2399 42.9458 71.593 42.5673C70.9587 42.1762 70.4634 41.62 70.107 40.8989C69.7506 40.1777 69.5713 39.3294 69.569 38.3541C69.5667 37.3788 69.742 36.536 70.095 35.8259C70.448 35.103 70.9407 34.5509 71.5731 34.1694C72.2182 33.7752 72.9714 33.5771 73.8327 33.575C74.6434 33.5731 75.3468 33.7678 75.9431 34.159C76.552 34.5376 76.9585 35.056 77.1628 35.7141L76.9915 35.6006L77.1771 33.7571L79.4761 33.7517C79.4264 34.1445 79.3893 34.5435 79.365 34.9489C79.3406 35.3543 79.3289 35.7534 79.3298 36.146L79.3459 42.967C79.3495 44.4743 78.9405 45.6216 78.1191 46.4089C77.3103 47.2088 76.1206 47.6106 74.5499 47.6144ZM74.497 41.3065C75.257 41.3047 75.858 41.0499 76.3002 40.5422C76.7549 40.0218 76.9812 39.2866 76.979 38.3366C76.9767 37.3866 76.747 36.6588 76.2898 36.1532C75.8453 35.6476 75.243 35.3957 74.483 35.3975C73.7103 35.3993 73.0966 35.6541 72.6418 36.1618C72.187 36.6696 71.9607 37.3985 71.963 38.3485C71.9652 39.2985 72.195 40.0326 72.6522 40.5508C73.1094 41.0564 73.7243 41.3083 74.497 41.3065ZM82.1334 47.6534L81.5779 45.7737C82.1729 45.6457 82.6729 45.4988 83.0779 45.3332C83.4828 45.1676 83.818 44.9514 84.0833 44.6848C84.3487 44.4182 84.5696 44.0757 84.7459 43.6572L85.2183 42.5351L85.1635 43.4662L80.9605 33.7482L83.4874 33.7422L86.5071 41.2211L85.9562 41.2224L88.9594 33.7292L91.3534 33.7236L87.0074 43.8609C86.7177 44.5456 86.4023 45.11 86.0614 45.5541C85.7205 46.0109 85.354 46.3728 84.962 46.6397C84.57 46.9193 84.1398 47.1357 83.6715 47.2888C83.2032 47.4419 82.6905 47.5634 82.1334 47.6534Z" fill="white"/>
<path d="M39.0039 21.035C38.9409 16.6582 36.7386 13.4576 32.7435 11.9526C30.5721 11.1321 29.6238 10.0328 28.9425 7.86276C27.3805 2.88714 22.2193 -0.104263 17.1679 0.590131C12.4407 1.23321 8.73561 4.75108 7.77177 9.56418C7.54073 10.7316 7.16557 11.5118 5.94953 12.1108C2.12892 13.9923 0.0109181 17.062 0.0740336 21.483C0.139868 26.1631 0.233076 30.8473 0.088266 35.5216C-0.0763119 40.7435 4.00085 44.917 8.53781 45.793C12.1897 46.4963 15.8933 45.8999 18.2717 46.048C22.6949 46.0376 25.8124 46.1208 28.9274 46.0018C34.2074 45.7997 38.9466 41.3442 39.0152 36.4995C39.0915 31.341 39.0793 26.1848 39.0039 21.035ZM11.0094 9.67027C11.5238 7.98933 12.572 6.52181 13.9952 5.48998C15.4184 4.45814 17.1391 3.9182 18.8967 3.95192C22.3343 4.01751 25.4049 6.51045 26.3291 9.86994C26.5649 10.7288 26.2598 10.8516 25.5605 10.8512C23.2436 10.844 20.9266 10.8622 18.6224 10.8676C16.4065 10.8728 14.1991 10.8507 11.9728 10.8981C11.0187 10.913 10.7001 10.6778 11.0094 9.67027ZM35.4134 35.5855C35.3192 40.2891 31.5374 42.5581 28.2474 42.608C25.324 42.6507 22.3941 42.6218 19.4663 42.6288L19.4662 42.6056C16.5862 42.6124 13.7076 42.6192 10.8304 42.626C7.24971 42.6345 3.63067 39.8016 3.77401 35.3949C3.93103 30.5374 3.78051 25.6722 3.82376 20.8086C3.8576 17.3057 6.33646 14.5195 9.83661 14.2901C16.2893 13.8683 22.7532 13.6845 29.2145 14.2232C32.737 14.516 35.2227 17.3094 35.3175 20.8605C35.4428 25.7721 35.5218 30.6733 35.4134 35.5855Z" fill="white"/>
<path d="M30.1655 28.1665C29.9852 31.1811 29.0248 33.9026 26.8647 36.0836C25.8056 37.1684 24.538 38.0279 23.1382 38.6104C21.7384 39.1928 20.2353 39.4862 18.7192 39.4729C12.8405 39.4868 7.54271 33.9555 7.75197 28.0363C7.78539 27.0252 8.19036 26.3755 9.18217 26.2678C10.334 26.1472 10.8162 26.9485 10.8943 27.9215C11.0785 30.1137 11.7698 32.0646 13.3428 33.6469C15.6272 35.9395 18.3354 36.6135 21.3914 35.5973C24.4978 34.5621 26.2492 32.3168 26.8293 29.1265C26.9041 28.7051 26.9326 28.2837 26.999 27.8623C27.1589 26.872 27.6268 26.1063 28.7434 26.23C29.8305 26.3496 30.2263 27.1617 30.1655 28.1665Z" fill="white"/>
<path d="M33.2474 28.3193C33.1226 28.9873 32.9304 29.6744 32.0245 29.5565C31.1964 29.4489 31.3907 28.7871 31.3894 28.2373C31.385 26.3417 30.7041 25.2417 29.2751 24.828C27.846 24.4143 26.6491 25.068 25.6991 26.8311C25.3489 27.4849 24.8947 27.8146 24.2388 27.4897C23.6252 27.1857 23.706 26.6126 23.9131 26.016C24.2417 25.0533 24.8658 24.2189 25.6965 23.6319C26.5272 23.0448 27.5221 22.735 28.5393 22.7466C31.4754 22.7355 33.7883 25.4682 33.2474 28.3193Z" fill="white"/>
</svg>
