<svg width="109" height="14" viewBox="0 0 109 14" fill="none" xmlns="http://www.w3.org/2000/svg">
<path d="M10.3633 0.77823L10.3869 10.7462L9.0849 10.7493L9.06871 3.9033L6.13091 10.7563L5.13691 10.7586L2.12483 3.96173L2.15492 10.7657L0.852926 10.7688L0.829347 0.800782L1.99134 0.798034L5.63681 9.02143L9.20132 0.780979L10.3633 0.77823Z" fill="#252733"/>
<path d="M19.231 3.66926L19.2477 10.7252L17.8477 10.7286L17.8449 9.52456C17.6406 9.94504 17.3333 10.2678 16.9232 10.4927C16.5224 10.7177 16.0513 10.8308 15.51 10.8321C14.8846 10.8336 14.3336 10.6855 13.8569 10.388C13.3895 10.0904 13.0246 9.67129 12.7619 9.13058C12.4993 8.58053 12.3671 7.94151 12.3654 7.21351C12.3637 6.48551 12.4928 5.84121 12.7528 5.28059C13.0222 4.71995 13.3945 4.28507 13.8698 3.97594C14.345 3.66682 14.886 3.51154 15.4927 3.5101C16.034 3.50882 16.5056 3.62438 16.9075 3.85676C17.3093 4.07981 17.6181 4.40108 17.8338 4.82057L17.831 3.67257L19.231 3.66926ZM15.8433 9.71129C16.478 9.70979 16.9675 9.4893 17.3118 9.04982C17.6654 8.60098 17.8412 7.97523 17.8393 7.17256C17.8374 6.36057 17.6586 5.73565 17.3029 5.29783C16.9565 4.85998 16.4613 4.64182 15.8173 4.64334C15.1827 4.64484 14.6839 4.87469 14.321 5.33288C13.9674 5.78172 13.7915 6.40747 13.7934 7.21013C13.7953 8.00347 13.9741 8.61904 14.3298 9.05687C14.6948 9.49468 15.1993 9.71282 15.8433 9.71129Z" fill="#252733"/>
<path d="M23.3449 4.75153L23.3532 8.29352C23.3544 8.77886 23.4579 9.12395 23.6637 9.32879C23.8788 9.52428 24.1731 9.62159 24.5464 9.62071C24.7891 9.62013 25.0363 9.58221 25.2881 9.50695L25.2908 10.6549C24.9831 10.7583 24.6332 10.8105 24.2412 10.8114C23.5132 10.8132 22.9481 10.6092 22.5457 10.1994C22.1434 9.78972 21.9414 9.19287 21.9395 8.40887L21.9309 4.75488L20.5589 4.75812L20.5563 3.66613L21.9283 3.66288L21.9241 1.89889L23.3369 1.40554L23.3423 3.65954L25.2883 3.65493L25.2909 4.74693L23.3449 4.75153Z" fill="#252733"/>
<path d="M30.5458 3.4745C32.2351 3.4705 33.082 4.41117 33.0865 6.2965L33.0969 10.6925L31.6829 10.6958L31.6727 6.38384C31.6712 5.76784 31.5488 5.32013 31.3055 5.0407C31.0715 4.76126 30.6932 4.62215 30.1705 4.62339C29.5732 4.6248 29.093 4.8126 28.7298 5.1868C28.3761 5.56097 28.1999 6.06072 28.2014 6.68605L28.2109 10.704L26.8109 10.7074L26.7865 0.40338L28.1865 0.400068L28.1968 4.74006C28.4292 4.32884 28.7504 4.01541 29.1606 3.79977C29.5707 3.58414 30.0325 3.47571 30.5458 3.4745Z" fill="#252733"/>
<path d="M41.3214 7.17302L36.2814 7.18494C36.332 8.83683 37.0853 9.66105 38.5413 9.6576C39.3533 9.65568 40.0946 9.38793 40.7654 8.85434L41.2018 9.86131C40.8851 10.1421 40.4796 10.367 39.9854 10.5362C39.5004 10.696 39.0106 10.7765 38.5159 10.7777C37.3866 10.7803 36.4992 10.4604 35.8537 9.81796C35.2081 9.16615 34.884 8.27558 34.8813 7.14625C34.8796 6.42759 35.0181 5.78792 35.2968 5.22726C35.5848 4.66658 35.9851 4.23163 36.4977 3.92242C37.0103 3.61321 37.5933 3.45783 38.2466 3.45628C39.1986 3.45403 39.946 3.76026 40.4888 4.37498C41.0409 4.98968 41.3183 5.84302 41.3208 6.93502L41.3214 7.17302ZM38.2771 4.50621C37.7451 4.50747 37.3115 4.66716 36.9762 4.98529C36.641 5.30342 36.4274 5.75659 36.3354 6.34481L40.0734 6.33597C40.016 5.73877 39.8329 5.28653 39.5242 4.97926C39.2155 4.66266 38.7998 4.50498 38.2771 4.50621Z" fill="#252733"/>
<path d="M49.2676 3.59821L49.2842 10.6542L47.9122 10.6574L47.9095 9.48144C47.6864 9.89264 47.3792 10.2107 46.9877 10.4356C46.5962 10.6512 46.1532 10.7596 45.6585 10.7608C43.9598 10.7648 43.1083 9.82413 43.1038 7.9388L43.0936 3.61282L44.4936 3.6095L44.5038 7.92149C44.5051 8.50016 44.6228 8.92921 44.8568 9.20866C45.1001 9.47875 45.4644 9.61322 45.9498 9.61208C46.5284 9.61071 46.99 9.42295 47.3344 9.0488C47.6882 8.67463 47.8644 8.17954 47.8629 7.56355L47.8536 3.60156L49.2676 3.59821Z" fill="#252733"/>
<path d="M54.0196 10.741C52.7876 10.7439 51.8162 10.4475 51.1055 9.85188L51.5231 8.82889C52.2617 9.38715 53.107 9.66515 54.059 9.6629C54.5444 9.66175 54.9128 9.58154 55.1645 9.42228C55.4161 9.25368 55.5415 9.02005 55.5408 8.72139C55.5402 8.46939 55.4511 8.2736 55.2734 8.13402C55.1051 7.98508 54.8154 7.85977 54.4045 7.75807L53.2279 7.48085C52.6116 7.35165 52.1397 7.12409 51.8123 6.7982C51.4941 6.46295 51.3345 6.048 51.3333 5.55333C51.3318 4.91867 51.5826 4.40474 52.0857 4.01155C52.5981 3.61833 53.2743 3.42073 54.1143 3.41875C54.6183 3.41755 55.0945 3.49576 55.5428 3.65337C56.0005 3.81095 56.3884 4.03404 56.7064 4.32262L56.2748 5.31764C55.5922 4.77792 54.8728 4.50896 54.1169 4.51074C53.6595 4.51183 53.3051 4.60133 53.0535 4.77926C52.8019 4.94786 52.6764 5.18615 52.6772 5.49415C52.6777 5.73682 52.7575 5.93263 52.9166 6.08159C53.0756 6.23054 53.3279 6.34661 53.6734 6.4298L54.8781 6.72095C55.5504 6.86869 56.0457 7.10552 56.3638 7.43144C56.6912 7.748 56.8555 8.16294 56.8567 8.67627C56.8582 9.31094 56.6027 9.81554 56.0903 10.1901C55.5872 10.5553 54.8969 10.7389 54.0196 10.741Z" fill="#252733"/>
<path d="M68.6402 5.47039C69.2193 5.62769 69.668 5.91596 69.9863 6.33521C70.3046 6.75446 70.4645 7.27208 70.466 7.88808C70.468 8.74674 70.1709 9.41478 69.5747 9.89219C68.9878 10.3696 68.1624 10.6095 67.0984 10.6121L62.7864 10.6223L62.7628 0.654281L66.9348 0.644412C67.9615 0.641984 68.76 0.868762 69.3304 1.32475C69.9102 1.78071 70.201 2.41936 70.203 3.24069C70.2042 3.77269 70.0653 4.23502 69.7862 4.62768C69.5165 5.01098 69.1345 5.29189 68.6402 5.47039ZM64.2011 4.97689L66.721 4.97093C68.1117 4.96764 68.8058 4.42933 68.8032 3.356C68.8008 2.32 68.1042 1.80365 66.7136 1.80694L64.1936 1.8129L64.2011 4.97689ZM66.9556 9.45039C67.6836 9.44867 68.2153 9.31674 68.5507 9.05461C68.8861 8.78315 69.0531 8.36742 69.0518 7.80742C69.0504 7.23809 68.8768 6.8185 68.5308 6.54865C68.1941 6.26945 67.6665 6.1307 66.9478 6.1324L64.2038 6.13889L64.2117 9.45688L66.9556 9.45039Z" fill="#252733"/>
<path d="M75.4826 10.6902C74.7919 10.6919 74.1849 10.544 73.6615 10.2465C73.1382 9.9491 72.7312 9.52539 72.4405 8.97541C72.1592 8.42541 72.0177 7.78174 72.016 7.04441C72.0142 6.30708 72.1527 5.66275 72.4314 5.11142C72.7194 4.55074 73.1244 4.12045 73.6463 3.82055C74.1683 3.52064 74.7746 3.36988 75.4653 3.36824C76.1466 3.36663 76.749 3.51454 77.2723 3.81197C77.7957 4.1094 78.198 4.53778 78.4794 5.09712C78.77 5.6471 78.9162 6.29075 78.9179 7.02809C78.9197 7.76542 78.7765 8.40976 78.4885 8.96111C78.2098 9.51243 77.8095 9.93805 77.2875 10.238C76.7656 10.5379 76.1639 10.6886 75.4826 10.6902ZM75.4659 9.57026C76.1193 9.56871 76.6181 9.35286 76.9624 8.92272C77.3067 8.49257 77.4779 7.86216 77.4759 7.0315C77.474 6.2195 77.2952 5.59459 76.9395 5.15676C76.5931 4.71891 76.1026 4.50074 75.4679 4.50224C74.824 4.50376 74.3251 4.72428 73.9715 5.16378C73.6179 5.60328 73.442 6.22904 73.444 7.04103C73.4459 7.8717 73.6201 8.50129 73.9664 8.9298C74.3221 9.3583 74.8219 9.57178 75.4659 9.57026Z" fill="#252733"/>
<path d="M84.276 3.3474C84.4907 3.34689 84.7148 3.37903 84.9482 3.44381L84.9233 4.73187C84.6711 4.63914 84.3956 4.59312 84.097 4.59383C83.453 4.59535 82.9681 4.7925 82.6424 5.18527C82.3259 5.56869 82.1684 6.05439 82.1698 6.64239L82.1791 10.5764L80.7791 10.5797L80.7671 5.51171C80.7654 4.77438 80.7265 4.1118 80.6504 3.52398L81.9664 3.52086L82.0954 4.79456C82.281 4.32745 82.5695 3.9721 82.9609 3.72851C83.3523 3.47558 83.7907 3.34855 84.276 3.3474Z" fill="#252733"/>
<path d="M92.5993 3.49571L92.6157 10.4257C92.6183 11.499 92.3355 12.307 91.7675 12.8497C91.2088 13.4017 90.3741 13.679 89.2634 13.6816C88.1901 13.6842 87.2515 13.4531 86.4478 12.9883L86.6832 11.8817C87.1224 12.114 87.5428 12.2857 87.9444 12.3967C88.3553 12.5078 88.7894 12.5628 89.2468 12.5617C90.5628 12.5586 91.2192 11.885 91.216 10.541L91.2124 9.01501C90.9987 9.42618 90.6868 9.75359 90.2767 9.99722C89.8666 10.2315 89.3909 10.3493 88.8495 10.3506C88.2335 10.3521 87.6825 10.2087 87.1965 9.92051C86.7198 9.6323 86.3455 9.22252 86.0736 8.69116C85.811 8.15978 85.6789 7.54876 85.6773 6.8581C85.6756 6.16743 85.8049 5.55579 86.0649 5.02317C86.3343 4.49053 86.7067 4.07899 87.182 3.78853C87.6666 3.48871 88.2169 3.33808 88.8329 3.33662C89.3743 3.33534 89.8506 3.45088 90.2618 3.68324C90.673 3.90627 90.9864 4.22753 91.2021 4.64702L91.1993 3.49902L92.5993 3.49571ZM89.1689 9.21584C89.8035 9.21434 90.3024 9.00316 90.6654 8.5823C91.0284 8.16144 91.209 7.58235 91.2073 6.84501C91.2055 6.10768 91.0221 5.52945 90.6571 5.11031C90.3015 4.68182 89.8016 4.46833 89.1576 4.46986C88.523 4.47136 88.0195 4.68722 87.6472 5.11743C87.2841 5.53829 87.1035 6.11739 87.1053 6.85472C87.107 7.58272 87.2903 8.16095 87.6554 8.58942C88.0297 9.00854 88.5342 9.21734 89.1689 9.21584Z" fill="#252733"/>
<path d="M100.904 7.03208L95.8637 7.044C95.9142 8.69589 96.6675 9.52011 98.1235 9.51666C98.9355 9.51474 99.6769 9.24699 100.348 8.7134L100.784 9.72037C100.467 10.0011 100.062 10.2261 99.5676 10.3952C99.0827 10.5551 98.5928 10.6356 98.0982 10.6367C96.9688 10.6394 96.0814 10.3195 95.4359 9.67702C94.7904 9.02521 94.4662 8.13464 94.4636 7.00531C94.4619 6.28665 94.6004 5.64698 94.879 5.08632C95.1671 4.52564 95.5674 4.09069 96.08 3.78148C96.5926 3.47227 97.1755 3.31689 97.8289 3.31534C98.7809 3.31309 99.5283 3.61932 100.071 4.23404C100.623 4.84874 100.901 5.70208 100.903 6.79408L100.904 7.03208ZM97.8593 4.36527C97.3273 4.36653 96.8937 4.52622 96.5585 4.84435C96.2232 5.16248 96.0096 5.61565 95.9177 6.20387L99.6557 6.19503C99.5983 5.59783 99.4152 5.14559 99.1065 4.83832C98.7977 4.52172 98.382 4.36404 97.8593 4.36527Z" fill="#252733"/>
<path d="M105.199 10.6199C103.967 10.6228 102.995 10.3265 102.285 9.73082L102.702 8.70783C103.441 9.26608 104.286 9.54408 105.238 9.54183C105.724 9.54068 106.092 9.46048 106.344 9.30122C106.595 9.13262 106.721 8.89899 106.72 8.60032C106.719 8.34833 106.63 8.15254 106.453 8.01296C106.284 7.86402 105.995 7.73871 105.584 7.63701L104.407 7.35979C103.791 7.23058 103.319 7.00303 102.991 6.67714C102.673 6.34189 102.514 5.92693 102.512 5.43227C102.511 4.7976 102.762 4.28368 103.265 3.89048C103.777 3.49727 104.453 3.29967 105.293 3.29768C105.797 3.29649 106.274 3.3747 106.722 3.53231C107.18 3.68989 107.568 3.91297 107.886 4.20156L107.454 5.19658C106.771 4.65686 106.052 4.38789 105.296 4.38968C104.839 4.39076 104.484 4.48027 104.233 4.6582C103.981 4.82679 103.856 5.06509 103.856 5.37309C103.857 5.61576 103.937 5.81157 104.096 5.96052C104.255 6.10948 104.507 6.22555 104.853 6.30873L106.057 6.59989C106.73 6.74763 107.225 6.98446 107.543 7.31037C107.87 7.62693 108.035 8.04188 108.036 8.55521C108.037 9.18988 107.782 9.69448 107.269 10.069C106.766 10.4342 106.076 10.6179 105.199 10.6199Z" fill="#252733"/>
</svg>
