<svg width="17" height="17" viewBox="0 0 17 17" fill="none" xmlns="http://www.w3.org/2000/svg">
<path d="M8.67646 16.9418C9.78021 16.9392 10.6734 16.0418 10.6708 14.9371L6.67267 14.9466C6.67529 16.0513 7.57271 16.9444 8.67646 16.9418ZM15.3963 12.2475C14.791 11.6002 13.659 10.6269 13.6515 7.43004C13.6457 5.00192 11.9386 3.0622 9.64189 2.59076L9.64035 1.93951C9.63904 1.38732 9.19049 0.940571 8.63861 0.941877C8.08674 0.943182 7.6403 1.39205 7.64161 1.94424L7.64315 2.59549C5.34866 3.07779 3.65076 5.02556 3.6565 7.45368C3.66406 10.6505 2.53669 11.6292 1.93447 12.2793C1.74745 12.4813 1.6649 12.7225 1.66702 12.9584C1.67167 13.4709 2.07501 13.9574 2.67251 13.956L14.6662 13.9277C15.2637 13.9262 15.6651 13.4378 15.667 12.9253C15.668 12.6893 15.5843 12.4483 15.3963 12.2475Z" fill="#C5C7CD"/>
</svg>
