<svg width="15" height="17" viewBox="0 0 15 17" fill="none" xmlns="http://www.w3.org/2000/svg">
<path opacity="0.4" d="M14.9419 11.7409L14.9171 1.24092C14.9161 0.825292 14.5809 0.491709 14.1653 0.492692L3.91534 0.516938C2.25909 0.520856 0.918523 1.86778 0.922441 3.52403L0.946095 13.524C0.950013 15.1802 2.29694 16.5208 3.95318 16.5169L14.2032 16.4926C14.6188 16.4917 14.9524 16.1565 14.9514 15.7409L14.9502 15.2409C14.9496 15.0065 14.8398 14.7943 14.6707 14.6572C14.5383 14.1762 14.5351 12.8044 14.6652 12.3228C14.8336 12.188 14.9425 11.9753 14.9419 11.7409ZM4.92524 4.70206C4.92499 4.59894 5.00917 4.51436 5.11229 4.51412L11.7373 4.49845C11.8404 4.4982 11.925 4.58238 11.9252 4.6855L11.9267 5.3105C11.9269 5.41363 11.8428 5.4982 11.7396 5.49844L5.11466 5.51412C5.01153 5.51436 4.92696 5.43018 4.92672 5.32706L4.92524 4.70206ZM4.92997 6.70206C4.92973 6.59893 5.0139 6.51436 5.11703 6.51411L11.742 6.49844C11.8451 6.4982 11.9297 6.58237 11.9299 6.6855L11.9314 7.3105C11.9317 7.41362 11.8475 7.49819 11.7444 7.49844L5.11939 7.51411C5.01627 7.51435 4.93169 7.43018 4.93145 7.32705L4.92997 6.70206ZM12.8672 14.4958L3.94845 14.5169C3.39533 14.5182 2.9474 14.0724 2.94609 13.5193C2.94479 12.9693 3.39372 12.5182 3.94372 12.5169L12.8624 12.4958C12.8043 13.0303 12.8065 13.9616 12.8672 14.4958Z" fill="#9FA2B4"/>
</svg>
