<svg width="15" height="17" viewBox="0 0 15 17" fill="none" xmlns="http://www.w3.org/2000/svg">
<path opacity="0.4" d="M7.8018 8.50761C10.0112 8.50239 11.7976 6.70753 11.7923 4.49816C11.7871 2.28879 9.99225 0.502408 7.78288 0.507635C5.57351 0.512861 3.78713 2.30772 3.79235 4.51709C3.79758 6.72645 5.59243 8.51284 7.8018 8.50761ZM10.798 9.51928L9.31836 15.504L8.30831 11.2564L9.30416 9.50406L6.30417 9.51116L7.30831 11.2588L6.31836 15.5111L4.81047 9.53344C2.5826 9.64496 0.808792 11.471 0.814122 13.7242L0.817197 15.0242C0.819156 15.8523 1.49262 16.5226 2.32074 16.5206L13.3207 16.4946C14.1488 16.4926 14.8191 15.8192 14.8172 14.991L14.8141 13.691C14.8088 11.4379 13.0263 9.62026 10.798 9.51928Z" fill="#9FA2B4"/>
</svg>
