<svg width="17" height="17" viewBox="0 0 17 17" fill="none" xmlns="http://www.w3.org/2000/svg">
<g clip-path="url(#clip0_584_242)">
<path fill-rule="evenodd" clip-rule="evenodd" d="M7.16595 11.54C9.92736 11.5335 12.1606 9.28965 12.1541 6.52823C12.1476 3.76681 9.90371 1.53354 7.14229 1.54007C4.38088 1.5466 2.1476 3.79047 2.15413 6.55188C2.16067 9.3133 4.40453 11.5466 7.16595 11.54ZM7.1695 13.04C10.7593 13.0315 13.6626 10.1145 13.6541 6.52468C13.6456 2.93484 10.7286 0.0315833 7.13875 0.040075C3.5489 0.0485666 0.645647 2.96559 0.654139 6.55543C0.662631 10.1453 3.57966 13.0485 7.1695 13.04Z" fill="#C5C7CD"/>
<path fill-rule="evenodd" clip-rule="evenodd" d="M11.1332 10.5003C11.4254 10.2068 11.9003 10.2056 12.1938 10.4978L16.2033 14.4884C16.4969 14.7806 16.498 15.2554 16.2058 15.549C15.9136 15.8426 15.4387 15.8437 15.1451 15.5515L11.1357 11.561C10.8421 11.2688 10.841 10.7939 11.1332 10.5003Z" fill="#C5C7CD"/>
</g>
<defs>
<clipPath id="clip0_584_242">
<rect width="16" height="16" fill="white" transform="translate(0.638763 0.0554504) rotate(-0.135531)"/>
</clipPath>
</defs>
</svg>
