<svg width="17" height="11" viewBox="0 0 17 11" fill="none" xmlns="http://www.w3.org/2000/svg">
<path opacity="0.4" d="M3.95364 2.85194L12.8425 2.83092L12.8551 8.16424L3.96625 8.18526L3.95364 2.85194ZM15.071 5.49232C15.0728 6.22871 15.6711 6.82424 16.4075 6.8225L16.4138 9.48915C16.4156 10.2255 15.82 10.8239 15.0836 10.8256L1.75035 10.8572C1.01396 10.8589 0.415604 10.2634 0.413862 9.527L0.407554 6.86034C1.14394 6.8586 1.73947 6.26025 1.73773 5.52386C1.73599 4.78747 1.13763 4.19194 0.401246 4.19368L0.394939 1.52702C0.393197 0.790638 0.988727 0.192283 1.72511 0.190541L15.0584 0.159002C15.7948 0.15726 16.3932 0.75279 16.3949 1.48918L16.4012 4.15584C15.6648 4.15758 15.0693 4.75593 15.071 5.49232ZM13.7309 2.60659C13.73 2.2384 13.4308 1.94063 13.0626 1.94151L3.72931 1.96358C3.36112 1.96445 3.06336 2.26363 3.06423 2.63182L3.07789 8.40959C3.07876 8.77778 3.37794 9.07554 3.74613 9.07467L13.0794 9.0526C13.4476 9.05173 13.7454 8.75255 13.7445 8.38435L13.7309 2.60659Z" fill="#9FA2B4"/>
</svg>
