<svg width="17" height="17" viewBox="0 0 17 17" fill="none" xmlns="http://www.w3.org/2000/svg">
<g clip-path="url(#clip0_584_277)">
<path opacity="0.4" d="M15.3017 10.357L13.9687 9.59135C14.1013 8.86604 14.0996 8.12229 13.9635 7.39761L15.2929 6.62571C15.4458 6.53785 15.5142 6.35644 15.4638 6.18781C15.1143 5.07613 14.5213 4.07128 13.7474 3.23561C13.6283 3.10776 13.4345 3.07697 13.2847 3.16483L11.9553 3.93672C11.3948 3.4568 10.7502 3.08645 10.0527 2.84435L10.0491 1.30997C10.0487 1.13498 9.92644 0.982139 9.75447 0.945046C8.607 0.691509 7.43203 0.706789 6.34199 0.953118C6.1702 0.991024 6.04869 1.14444 6.0491 1.31944L6.05274 2.85693C5.35957 3.10545 4.71671 3.47884 4.15534 3.9583L2.8254 3.19269C2.67207 3.10555 2.48151 3.13413 2.36307 3.26566C1.59317 4.10186 1.00493 5.1095 0.660695 6.22595C0.60797 6.39482 0.680273 6.5759 0.833605 6.66304L2.16667 7.42864C2.03401 8.15395 2.03577 8.8977 2.17186 9.62238L0.842431 10.3943C0.689513 10.4821 0.621192 10.6636 0.671591 10.8322C1.0211 11.9439 1.6141 12.9487 2.38795 13.7844C2.50701 13.9122 2.70083 13.943 2.85062 13.8552L4.18005 13.0833C4.74056 13.5632 5.38519 13.9335 6.08264 14.1756L6.08627 15.7131C6.08669 15.8881 6.20892 16.041 6.38089 16.0781C7.52837 16.3316 8.70333 16.3163 9.79338 16.07C9.96516 16.0321 10.0867 15.8787 10.0863 15.7037L10.0826 14.1662C10.7758 13.9177 11.4187 13.5443 11.98 13.0648L13.3131 13.8304C13.4664 13.9176 13.657 13.889 13.7754 13.7574C14.5453 12.9212 15.1336 11.9136 15.4778 10.7972C15.5243 10.6252 15.4551 10.4441 15.3017 10.357V10.357ZM8.07202 11.0084C6.6939 11.0117 5.56938 9.89247 5.56612 8.51435C5.56286 7.13623 6.68208 6.0117 8.0602 6.00844C9.43832 6.00518 10.5628 7.1244 10.5661 8.50252C10.5694 9.88064 9.45015 11.0052 8.07202 11.0084Z" fill="#9FA2B4"/>
</g>
<defs>
<clipPath id="clip0_584_277">
<rect width="16" height="16" fill="white" transform="translate(0.0472412 0.527439) rotate(-0.135531)"/>
</clipPath>
</defs>
</svg>
